<?xml version="1.0" encoding="UTF-8"?>
<svg width="50px" height="49px" viewBox="0 0 50 49" version="1.1" xmlns="http://www.w3.org/2000/svg" xmlns:xlink="http://www.w3.org/1999/xlink">
    <!-- Generator: Sketch 47.1 (45422) - http://www.bohemiancoding.com/sketch -->
    <title>linkedin</title>
    <desc>Created with Sketch.</desc>
    <defs></defs>
    <g id="Page-1" stroke="none" stroke-width="1" fill="none" fill-rule="evenodd">
        <g id="Desktop-HD" transform="translate(-669.000000, -4117.000000)" fill="#000000">
            <path d="M718.309152,4141.44869 C718.309152,4154.95131 707.363071,4165.89739 693.860458,4165.89739 C680.357845,4165.89739 669.411765,4154.95131 669.411765,4141.44869 C669.411765,4127.94608 680.357845,4117 693.860458,4117 C707.363071,4117 718.309152,4127.94608 718.309152,4141.44869 Z M682.889907,4138.09236 L682.889907,4152.76312 L687.52,4152.76312 L687.52,4138.09236 L682.889907,4138.09236 Z M700.17065,4137.95133 C697.518167,4137.95133 695.856099,4139.38801 695.548929,4140.39517 L695.548929,4138.09236 L690.347641,4138.09236 C690.414613,4139.31524 690.347641,4152.76312 690.347641,4152.76312 L695.548929,4152.76312 L695.548929,4144.82435 C695.548929,4144.38323 695.528322,4143.94212 695.662266,4143.62529 C696.019666,4142.74306 696.787913,4141.82734 698.169214,4141.82734 C699.975529,4141.82734 700.796582,4143.18417 700.796582,4145.17144 L700.796582,4152.76312 L706.046811,4152.76312 L706.046811,4144.60604 C706.046811,4140.0616 703.4613,4137.95133 700.17065,4137.95133 Z M685.119307,4131.16718 C683.409585,4131.16718 682.291022,4132.26514 682.291022,4133.71406 C682.291022,4135.13593 683.378031,4136.25707 685.053622,4136.25707 L685.087108,4136.25707 C686.82774,4136.25707 687.911529,4135.13142 687.911529,4133.71019 C687.878043,4132.26256 686.82774,4131.16718 685.119307,4131.16718 Z" id="linkedin"></path>
        </g>
    </g>
</svg>