<?xml version="1.0" encoding="UTF-8"?>
<svg width="820px" height="129px" viewBox="0 0 820 129" version="1.1" xmlns="http://www.w3.org/2000/svg" xmlns:xlink="http://www.w3.org/1999/xlink">
    <!-- Generator: Sketch 47.1 (45422) - http://www.bohemiancoding.com/sketch -->
    <title>Artboard 4</title>
    <desc>Created with Sketch.</desc>
    <defs></defs>
    <g id="Page-1" stroke="none" stroke-width="1" fill="none" fill-rule="evenodd">
        <g id="Artboard-4" fill="#28353D">
            <path d="M181.607985,37.4365475 C182.033631,37.8621933 182.246451,38.3676402 182.246451,38.9529032 L182.246451,90.5089965 C182.246451,91.0942595 182.033631,91.5997063 181.607985,92.0253521 C181.182339,92.450998 180.676893,92.6638177 180.09163,92.6638177 L169.636756,92.6638177 C169.051493,92.6638177 168.546046,92.450998 168.1204,92.0253521 C167.694755,91.5997063 167.481935,91.0942595 167.481935,90.5089965 L167.481935,70.9559889 L149.764516,70.9559889 L149.764516,90.5089965 C149.764516,91.0942595 149.551696,91.5997063 149.12605,92.0253521 C148.700404,92.450998 148.194958,92.6638177 147.609695,92.6638177 L137.154821,92.6638177 C136.569558,92.6638177 136.064111,92.4642992 135.638466,92.0652562 C135.21282,91.6662133 135,91.1474652 135,90.5089965 L135,38.9529032 C135,38.3676402 135.21282,37.8621933 135.638466,37.4365475 C136.064111,37.0109017 136.569558,36.7980819 137.154821,36.7980819 L147.609695,36.7980819 C148.194958,36.7980819 148.700404,37.0109017 149.12605,37.4365475 C149.551696,37.8621933 149.764516,38.3676402 149.764516,38.9529032 L149.764516,58.1866779 L167.481935,58.1866779 L167.481935,38.9529032 C167.481935,38.3676402 167.694755,37.8621933 168.1204,37.4365475 C168.546046,37.0109017 169.051493,36.7980819 169.636756,36.7980819 L180.09163,36.7980819 C180.676893,36.7980819 181.182339,37.0109017 181.607985,37.4365475 Z M206.029292,92.0253521 C205.603646,91.5997063 205.390826,91.0942595 205.390826,90.5089965 L205.390826,38.9529032 C205.390826,38.3676402 205.603646,37.8621933 206.029292,37.4365475 C206.454938,37.0109017 206.960384,36.7980819 207.545647,36.7980819 L218.000521,36.7980819 C218.585784,36.7980819 219.091231,37.0109017 219.516877,37.4365475 C219.942522,37.8621933 220.155342,38.3676402 220.155342,38.9529032 L220.155342,90.5089965 C220.155342,91.0942595 219.942522,91.5997063 219.516877,92.0253521 C219.091231,92.450998 218.585784,92.6638177 218.000521,92.6638177 L207.545647,92.6638177 C206.960384,92.6638177 206.454938,92.450998 206.029292,92.0253521 Z M243.938183,92.0253521 C243.512537,91.5997063 243.299717,91.0942595 243.299717,90.5089965 L243.299717,38.9529032 C243.299717,38.3676402 243.512537,37.8621933 243.938183,37.4365475 C244.363829,37.0109017 244.869276,36.7980819 245.454539,36.7980819 L271.152777,36.7980819 C275.675264,36.7980819 279.346404,37.5961559 282.166308,39.1923278 C284.986212,40.7884996 287.0213,42.8235882 288.271635,45.2976546 C289.521969,47.771721 290.147127,50.4718712 290.147127,53.3981863 C290.147127,56.0584727 289.681584,58.1999712 288.750484,59.8227459 C287.819384,61.4455206 286.795189,62.6825353 285.677868,63.5338269 C287.699686,64.9171759 289.136219,66.5532275 289.987511,68.4420308 C290.838803,70.3308342 291.264442,72.6319475 291.264442,75.3454396 C291.264442,80.2935724 289.774704,84.4169545 286.795183,87.7157097 C283.815662,91.0144648 279.160231,92.6638177 272.828749,92.6638177 L245.454539,92.6638177 C244.869276,92.6638177 244.363829,92.450998 243.938183,92.0253521 Z M258.064233,49.168352 L258.064233,58.2664861 L270.434503,58.2664861 C272.030675,58.2664861 273.241087,57.8674491 274.065776,57.0693632 C274.890465,56.2712773 275.302803,55.1539737 275.302803,53.7174191 C275.302803,52.2808644 274.890465,51.1635608 274.065776,50.3654749 C273.241087,49.567389 272.030675,49.168352 270.434503,49.168352 L258.064233,49.168352 Z M271.232585,80.2935476 C272.828757,80.2935476 274.105676,79.8413057 275.063379,78.9368083 C276.021082,78.032311 276.499926,76.8618025 276.499926,75.4252478 C276.499926,73.9886931 276.021082,72.8181847 275.063379,71.9136873 C274.105676,71.0091899 272.828757,70.556948 271.232585,70.556948 L258.064233,70.556948 L258.064233,80.2935476 L271.232585,80.2935476 Z M348.247492,38.873095 C351.918687,40.7885012 354.75185,43.3822416 356.747064,46.6543939 C358.742279,49.9265462 359.846281,53.5843852 360.059104,57.6280206 C360.165516,59.117781 360.218721,61.5120028 360.218721,64.810758 C360.218721,68.0563075 360.165516,70.3973244 360.059104,71.8338791 C359.846281,75.8775145 358.742279,79.5353534 356.747064,82.8075057 C354.75185,86.0796581 351.918687,88.6733984 348.247492,90.5888047 C344.576296,92.5042109 340.213492,93.4618996 335.158948,93.4618996 C330.104404,93.4618996 325.741599,92.5042109 322.070404,90.5888047 C318.399209,88.6733984 315.566046,86.0796581 313.570831,82.8075057 C311.575617,79.5353534 310.471614,75.8775145 310.258791,71.8338791 C310.15238,68.9607697 310.099175,66.6197528 310.099175,64.810758 C310.099175,63.0017632 310.15238,60.6075414 310.258791,57.6280206 C310.471614,53.5843852 311.575617,49.9265462 313.570831,46.6543939 C315.566046,43.3822416 318.399209,40.7885012 322.070404,38.873095 C325.741599,36.9576888 330.104404,36 335.158948,36 C340.213492,36 344.576296,36.9576888 348.247492,38.873095 Z M342.381589,51.2832691 C340.705609,49.6072887 338.298086,48.769311 335.158948,48.769311 C332.01981,48.769311 329.612287,49.6072887 327.936306,51.2832691 C326.260326,52.9592496 325.289336,55.2071579 325.023307,58.0270615 C324.86369,59.7828506 324.783883,61.9908552 324.783883,64.6511416 C324.783883,67.2582223 324.86369,69.5194319 325.023307,71.4348381 C325.289336,74.2547417 326.260326,76.50265 327.936306,78.1786305 C329.612287,79.8546109 332.01981,80.6925886 335.158948,80.6925886 C338.298086,80.6925886 340.705609,79.8546109 342.381589,78.1786305 C344.05757,76.50265 345.02856,74.2547417 345.294588,71.4348381 C345.454206,69.5194319 345.534013,67.2582223 345.534013,64.6511416 C345.534013,61.9908552 345.454206,59.7828506 345.294588,58.0270615 C345.02856,55.2071579 344.05757,52.9592496 342.381589,51.2832691 Z M428.69415,37.4365475 C429.119796,37.8621933 429.332616,38.3676402 429.332616,38.9529032 L429.332616,70.7963726 C429.332616,75.5848881 428.321722,79.6816678 426.299904,83.0868344 C424.278087,86.4920011 421.444924,89.0724402 417.800332,90.8282292 C414.155739,92.5840183 409.912646,93.4618996 405.070925,93.4618996 C400.175998,93.4618996 395.906302,92.5840183 392.26171,90.8282292 C388.617117,89.0724402 385.797256,86.4920011 383.802041,83.0868344 C381.806826,79.6816678 380.809234,75.5848881 380.809234,70.7963726 L380.809234,38.9529032 C380.809234,38.3676402 381.022054,37.8621933 381.4477,37.4365475 C381.873345,37.0109017 382.378792,36.7980819 382.964055,36.7980819 L393.418929,36.7980819 C394.004192,36.7980819 394.509638,37.0109017 394.935284,37.4365475 C395.36093,37.8621933 395.57375,38.3676402 395.57375,38.9529032 L395.57375,70.4771398 C395.57375,73.7226892 396.385125,76.2366222 398.0079,78.0190141 C399.630674,79.801406 401.984993,80.6925886 405.070925,80.6925886 C408.156857,80.6925886 410.511175,79.801406 412.13395,78.0190141 C413.756725,76.2366222 414.5681,73.7226892 414.5681,70.4771398 L414.5681,38.9529032 C414.5681,38.3676402 414.78092,37.8621933 415.206566,37.4365475 C415.632211,37.0109017 416.137658,36.7980819 416.722921,36.7980819 L427.177795,36.7980819 C427.763058,36.7980819 428.268504,37.0109017 428.69415,37.4365475 Z M495.573415,64.0924843 L495.573415,90.5089965 C495.573415,91.0942595 495.360595,91.5997063 494.93495,92.0253521 C494.509304,92.450998 494.003857,92.6638177 493.418594,92.6638177 L482.963721,92.6638177 C482.378457,92.6638177 481.873011,92.450998 481.447365,92.0253521 C481.021719,91.5997063 480.808899,91.0942595 480.808899,90.5089965 L480.808899,38.9529032 C480.808899,38.3676402 481.021719,37.8621933 481.447365,37.4365475 C481.873011,37.0109017 482.378457,36.7980819 482.963721,36.7980819 L492.221471,36.7980819 C493.711231,36.7980819 494.855137,37.5163485 495.653223,38.9529032 L508.582151,61.0597729 L521.511078,38.9529032 C522.309164,37.5163485 523.45307,36.7980819 524.942831,36.7980819 L534.200581,36.7980819 C534.785844,36.7980819 535.291291,37.0109017 535.716937,37.4365475 C536.142583,37.8621933 536.355402,38.3676402 536.355402,38.9529032 L536.355402,90.5089965 C536.355402,91.0942595 536.142583,91.5997063 535.716937,92.0253521 C535.291291,92.450998 534.785844,92.6638177 534.200581,92.6638177 L523.745708,92.6638177 C523.160445,92.6638177 522.654998,92.450998 522.229352,92.0253521 C521.803706,91.5997063 521.590886,91.0942595 521.590886,90.5089965 L521.590886,64.0924843 L514.088916,77.2608363 C513.716476,77.8460993 513.304138,78.3249437 512.851889,78.6973838 C512.39964,79.0698239 511.827687,79.2560411 511.136013,79.2560411 L506.028289,79.2560411 C505.336614,79.2560411 504.764661,79.0698239 504.312412,78.6973838 C503.860164,78.3249437 503.447825,77.8460993 503.075385,77.2608363 L495.573415,64.0924843 Z M574.264294,70.9559889 L597.089437,70.9559889 C597.6747,70.9559889 598.180147,70.7431692 598.605793,70.3175234 C599.031439,69.8918776 599.244258,69.3864307 599.244258,68.8011677 L599.244258,60.3414992 C599.244258,59.7562361 599.031439,59.2507893 598.605793,58.8251435 C598.180147,58.3994976 597.6747,58.1866779 597.089437,58.1866779 L574.264294,58.1866779 L574.264294,49.567393 L598.845217,49.567393 C599.43048,49.567393 599.935927,49.3545732 600.361573,48.9289274 C600.787219,48.5032816 601.000038,47.9978347 601.000038,47.4125717 L601.000038,38.9529032 C601.000038,38.3676402 600.787219,37.8621933 600.361573,37.4365475 C599.935927,37.0109017 599.43048,36.7980819 598.845217,36.7980819 L561.654599,36.7980819 C561.069336,36.7980819 560.563889,37.0109017 560.138243,37.4365475 C559.712597,37.8621933 559.499778,38.3676402 559.499778,38.9529032 L559.499778,90.5089965 C559.499778,91.0942595 559.712597,91.5997063 560.138243,92.0253521 C560.563889,92.450998 561.069336,92.6638177 561.654599,92.6638177 L599.483683,92.6638177 C600.068946,92.6638177 600.574393,92.450998 601.000038,92.0253521 C601.425684,91.5997063 601.638504,91.0942595 601.638504,90.5089965 L601.638504,82.0493279 C601.638504,81.4640649 601.425684,80.958618 601.000038,80.5329722 C600.574393,80.1073264 600.068946,79.8945067 599.483683,79.8945067 L574.264294,79.8945067 L574.264294,70.9559889 Z M657.02539,92.0652562 C656.440127,91.6662133 656.04109,91.2538751 655.828267,90.8282292 L637.55219,63.5338269 L637.55219,90.5089965 C637.55219,91.0942595 637.339371,91.5997063 636.913725,92.0253521 C636.488079,92.450998 635.982632,92.6638177 635.397369,92.6638177 L624.942496,92.6638177 C624.357233,92.6638177 623.851786,92.450998 623.42614,92.0253521 C623.000494,91.5997063 622.787675,91.0942595 622.787675,90.5089965 L622.787675,38.9529032 C622.787675,38.3676402 623.000494,37.8621933 623.42614,37.4365475 C623.851786,37.0109017 624.357233,36.7980819 624.942496,36.7980819 L633.242548,36.7980819 C634.040634,36.7980819 634.732298,36.9976004 635.317561,37.3966434 C635.902824,37.7956864 636.301861,38.2080246 636.514684,38.6336704 L654.79076,65.9280727 L654.79076,38.9529032 C654.79076,38.3676402 655.00358,37.8621933 655.429226,37.4365475 C655.854872,37.0109017 656.360319,36.7980819 656.945582,36.7980819 L667.400455,36.7980819 C667.985718,36.7980819 668.491165,37.0109017 668.916811,37.4365475 C669.342457,37.8621933 669.555276,38.3676402 669.555276,38.9529032 L669.555276,90.5089965 C669.555276,91.0942595 669.342457,91.5997063 668.916811,92.0253521 C668.491165,92.450998 667.985718,92.6638177 667.400455,92.6638177 L659.100403,92.6638177 C658.302317,92.6638177 657.610653,92.4642992 657.02539,92.0652562 Z M740.025911,37.4365475 C740.451556,37.8621933 740.664376,38.3676402 740.664376,38.9529032 L740.664376,70.7963726 C740.664376,75.5848881 739.653483,79.6816678 737.631665,83.0868344 C735.609847,86.4920011 732.776685,89.0724402 729.132092,90.8282292 C725.4875,92.5840183 721.244407,93.4618996 716.402685,93.4618996 C711.507758,93.4618996 707.238063,92.5840183 703.59347,90.8282292 C699.948878,89.0724402 697.129016,86.4920011 695.133802,83.0868344 C693.138587,79.6816678 692.140994,75.5848881 692.140994,70.7963726 L692.140994,38.9529032 C692.140994,38.3676402 692.353814,37.8621933 692.77946,37.4365475 C693.205106,37.0109017 693.710553,36.7980819 694.295816,36.7980819 L704.750689,36.7980819 C705.335952,36.7980819 705.841399,37.0109017 706.267045,37.4365475 C706.69269,37.8621933 706.90551,38.3676402 706.90551,38.9529032 L706.90551,70.4771398 C706.90551,73.7226892 707.716885,76.2366222 709.33966,78.0190141 C710.962435,79.801406 713.316753,80.6925886 716.402685,80.6925886 C719.488618,80.6925886 721.842936,79.801406 723.46571,78.0190141 C725.088485,76.2366222 725.89986,73.7226892 725.89986,70.4771398 L725.89986,38.9529032 C725.89986,38.3676402 726.11268,37.8621933 726.538326,37.4365475 C726.963972,37.0109017 727.469419,36.7980819 728.054682,36.7980819 L738.509555,36.7980819 C739.094818,36.7980819 739.600265,37.0109017 740.025911,37.4365475 Z M806.94508,52.9592412 C806.599243,53.3050784 806.213507,53.4779945 805.787862,53.4779945 L795.332988,53.4779945 C794.588108,53.4779945 794.002854,53.3848858 793.577208,53.1986658 C793.151562,53.0124457 792.672718,52.6799149 792.14066,52.2010634 C792.034249,52.0946519 791.688417,51.7355186 791.103154,51.1236528 C790.517891,50.5117869 789.600106,49.9664363 788.349771,49.4875848 C787.099437,49.0087332 785.649602,48.769311 784.000225,48.769311 C781.712378,48.769311 779.836905,49.0752394 778.373747,49.6871053 C776.910589,50.2989711 776.179022,51.3497685 776.179022,52.8395289 C776.179022,53.9036435 776.631264,54.7416212 777.535761,55.353487 C778.440258,55.9653529 779.836888,56.5107034 781.725691,56.989555 C783.614495,57.4684066 786.899899,58.1866731 791.582003,59.1443762 C797.59425,60.368108 802.01026,62.2834855 804.830163,64.8905662 C807.650067,67.4976469 809.059998,71.2219921 809.059998,76.0637134 C809.059998,79.5752914 808.0092,82.6478762 805.907574,85.2815598 C803.805948,87.9152433 800.879676,89.9370307 797.128673,91.3469825 C793.377669,92.7569343 789.134575,93.4618996 784.399266,93.4618996 C779.823573,93.4618996 775.673588,92.6638257 771.949187,91.0676538 C768.224786,89.471482 765.298515,87.3964897 763.170286,84.8426147 C761.042057,82.2887397 759.924753,79.6550957 759.818342,76.9416035 C759.818342,76.4627519 759.991258,76.0504137 760.337095,75.7045765 C760.682932,75.3587392 761.068668,75.1858232 761.494314,75.1858232 L771.949187,75.1858232 C773.119713,75.1858232 774.130607,75.5582577 774.981899,76.3031379 C775.141516,76.4627551 775.567155,76.9282983 776.25883,77.6997813 C776.950504,78.4712644 778.001302,79.1629285 779.411254,79.7747944 C780.821205,80.3866603 782.483859,80.6925886 784.399266,80.6925886 C790.996776,80.6925886 794.295482,79.2826579 794.295482,76.4627543 C794.295482,75.5582569 793.829939,74.8000867 792.898838,74.1882208 C791.967738,73.5763549 790.650916,73.0576068 788.948333,72.631961 C787.245749,72.2063152 784.532298,71.5944585 780.807897,70.7963726 L777.216528,70.0780988 C771.789544,68.9075728 767.799174,66.9522916 765.245299,64.2121966 C762.691424,61.4721015 761.414506,57.8142626 761.414506,53.2385699 C761.414506,50.1526376 762.345592,47.2928726 764.207793,44.659189 C766.069993,42.0255055 768.716938,39.9239107 772.148708,38.3543417 C775.580477,36.7847727 779.530943,36 784.000225,36 C788.309889,36 792.247054,36.8113752 795.811837,38.4341499 C799.376621,40.0569246 802.183181,42.0920132 804.231602,44.5394768 C806.280022,46.9869403 807.357422,49.3811621 807.463834,51.7222142 C807.463834,52.2010658 807.290918,52.613404 806.94508,52.9592412 Z" id="hibou-menus-copy-2"></path>
            <path d="M87.1778561,60 C87.1440734,63.7773088 87.1462394,68.4219397 87.1844062,73.9326394 C90.8148626,73.6825888 94.1625511,72.7356953 97.2354951,71.0805963 C97,66.9663197 97.5601696,62.8022877 97.2369433,60 C95.0015906,60 91.6485616,60 87.1778561,60 Z M103.869814,71.1188079 L104.19924,81.898 C104.19924,83.398 103.69924,84.7964 102.80084,85.6988 C102.10162,86.60114 101.00004,86.9996 100.00004,86.9996 C98.99996,87 97.89836,86.60156 97.19916,85.8008 C96.30072,84.8008 95.69916,83.4024 95.80076,82 L95.9823521,76.0580946 C93.1275538,77.1644514 90.0801273,77.8000917 86.8437421,77.9598186 C85.6906162,90.2566798 78.2536551,100.732822 67.8131088,106.113463 L85.0702811,106.117369 C86.1376978,106.117369 86.9994038,106.988431 86.9994038,108.058685 C86.9994038,109.132848 86.1338126,110 85.0702811,110 L21.9291227,110 C20.8617059,110 20,109.128938 20,108.058685 L20,107.250121 L20,55.8301402 L20,51.9826077 C20,46.2838558 21.3468285,41.178678 24.1299165,36.2452928 C29.5951348,26.5544147 39.9393027,20 51.7779594,20 L55.2248229,20 C67.0525491,20 77.3809176,26.5388153 82.8500113,36.2102943 C86.1571043,40.6601006 86.9994038,46.5423445 86.9994038,51.9796078 L86.9995097,56 C94.1748613,56 97,56 97,56 C97.5601696,57.9729417 97.2369433,70.8751801 97.5601696,75.3896899 C97.0409523,75.6288559 96.5150051,75.8516687 95.9823521,76.0580946 L96.6992,52.602 C93.3008,50.602 91,45.8012 91,40.301 C91,32.8987 95,27 100,27 C105,27 109,32.8984 109,40.199 C109,45.699 106.6992,50.5 103.3008,52.5 L103.407764,56 C105.105746,56 107.986716,56 111.649876,56 C113.166785,56 114.131528,57.6226156 113.406978,58.9552974 C110.660942,64.0061499 107.477991,68.0661709 103.869814,71.1188079 Z M55.2254191,23.8838309 L51.7774625,23.8838309 C45.803482,23.8838309 40.2688057,25.7860481 35.7196573,29.0125077 C36.7715628,28.8250158 37.8467203,28.7078309 38.9529798,28.7078309 C44.8221275,28.7078309 50.0971563,31.461611 53.4974164,35.8091218 C56.8977759,31.4577112 62.1730035,28.7078309 68.041853,28.7078309 C69.1442373,28.7078309 70.2193948,28.8250158 71.2713003,29.0125077 C66.7302006,25.7860481 61.1952262,23.8838309 55.2254191,23.8838309 Z M25.550595,42.3443273 C25.2361959,43.2192892 24.9606098,44.1137902 24.7280995,45.0239396 C24.6155359,46.2582859 24.499087,47.473033 24.3826381,48.7112791 C24.6699099,51.746247 25.8731522,54.5040269 27.7091675,56.7187305 C29.8479558,58.9217346 29.8479558,58.9217346 32.2816673,60.40607 C33.7295527,61.1521375 35.3092989,61.6755547 36.9861272,61.9021049 L38.2204717,62.0505384 L68.8614669,62.0075713 C75.7197197,61.6245879 81.3247483,56.5038109 82.4658859,49.8361011 C82.7608885,48.1291754 82.6250331,46.3675521 82.1786539,44.6957249 C81.9651725,43.8949598 81.7167535,43.1059241 81.4372821,42.3364276 C79.4886834,36.9773609 74.6984691,33.0087537 69.0391858,32.6220505 C68.7092655,32.5986135 68.37545,32.5868961 68.0416344,32.5868961 C61.2877176,32.5868961 55.6089582,37.1878958 53.9205038,43.4454233 C53.8040549,43.8829043 53.1946533,43.8829043 53.0782044,43.4454233 C51.3899487,37.1882957 45.7109907,32.5868961 38.9570738,32.5868961 C38.6193928,32.5868961 38.2855773,32.5986135 37.955647,32.6220505 C32.2928859,33.0088337 27.5029698,36.9812607 25.550595,42.3443273 Z M23.8543602,58.9213056 L23.8585336,104.224213 C32.0561624,99.7284092 37.222483,91.1350833 37.222483,81.5651999 C37.222483,74.6355015 34.5092505,68.2295804 29.9134987,63.5109858 C28.1861916,61.624268 27.1847649,61.3157814 25.2245401,59.7220508 C24.7781709,59.440813 24.3201458,59.1752046 23.8543602,58.9213056 Z M28.1857941,106.114251 L51.8366061,106.113964 C69.0977531,106.113964 83.141377,91.9815794 83.141377,74.6153354 L83.141377,58.0260576 C80.1017219,62.3461695 75.2848771,65.3304296 69.7148259,65.8343177 C69.4392299,65.896815 69.1558832,65.9280636 68.8647659,65.9280636 L36.9856503,65.9280636 C36.8653161,65.9280636 36.7566378,65.9007208 36.6401889,65.8890023 C39.4775315,70.4868021 41.0767538,75.8692678 41.0767538,81.5643199 C41.0767538,91.5718842 36.1662054,100.661389 28.1857941,106.114251 Z M71.0888613,48.0065808 C71.0888613,46.6784386 70.0136045,45.5964857 68.6940026,45.5964857 C67.3743015,45.5964857 66.3030133,46.6785386 66.3068946,48.0065808 C66.047196,48.6823227 65.4256742,49.0156415 64.4423294,49.0065372 C63.4589846,48.997433 62.8875651,48.6641142 62.7280709,48.0065808 C62.7280709,44.694225 65.406326,41.9990423 68.697878,41.9990423 C71.98943,41.9990423 74.6676851,44.694225 74.6676851,48.0065808 C74.5058409,48.6910693 73.9202583,49.0243881 72.9109373,49.0065372 C71.9016162,48.9886864 71.2942575,48.6553676 71.0888613,48.0065808 Z M40.9912082,48.0075807 C40.9912082,46.6794386 39.9159513,45.5974857 38.5963495,45.5974857 C37.2766483,45.5974857 36.2014779,46.6795386 36.2092415,48.0075807 C35.97305,48.6742184 35.3804183,49.0075372 34.4313463,49.0075372 C33.4822744,49.0075372 32.8819648,48.6742184 32.6304178,48.0075807 C32.6304178,44.6952249 35.3086729,42.0000423 38.6002248,42.0000423 C41.8917768,42.0000423 44.5700319,44.6952249 44.5700319,48.0075807 C44.4631035,48.6738803 43.8596438,49.0071991 42.7596527,49.0075372 C41.6596616,49.0078753 41.0701801,48.6745565 40.9912082,48.0075807 Z M57.1652735,54.8944809 L53.501093,61.1989065 L49.8369125,54.8944809 L53.501093,51.4180323 L57.1652735,54.8944809 Z M93.99996,40.199 C93.99996,45.199 96.10156,49.5974 99.10156,51 C99.5,51.19922 99.70312,51.5 99.70312,51.89844 L98.80468,81.89844 C98.80468,82.79688 98.7437369,83.9483066 99.99992,83.9701276 C101.256103,83.9919486 101.39836,82.79684 101.3007,81.89844 L100.40226,51.89844 C100.40226,51.5 100.60148,51.09766 101.00382,51 C104.00382,49.6016 106.10542,45.1992 106.10542,40.199 C105.99995,33.9998 103.89842,30 99.99992,30 C96.10156,30 93.99996,34 93.99996,40.199 Z M103.183594,66.7589768 C105.284044,64.8025206 106.877687,62.8069501 108.663024,60 C106.228144,60 104.340469,60 103,60 C103.104523,63.7251944 103.124744,63.924784 103.183594,66.7589768 Z" id="Combined-Shape-Copy-5" fill-rule="nonzero"></path>
        </g>
    </g>
</svg>