<?xml version="1.0" encoding="UTF-8"?>
<svg width="50px" height="49px" viewBox="0 0 50 49" version="1.1" xmlns="http://www.w3.org/2000/svg" xmlns:xlink="http://www.w3.org/1999/xlink">
    <!-- Generator: Sketch 47.1 (45422) - http://www.bohemiancoding.com/sketch -->
    <title>Google+ Copy</title>
    <desc>Created with Sketch.</desc>
    <defs></defs>
    <g id="Page-1" stroke="none" stroke-width="1" fill="none" fill-rule="evenodd">
        <g id="Desktop-HD" transform="translate(-889.000000, -4117.000000)" fill="#000000">
            <path d="M914.098328,4117 C900.594427,4117 889.647059,4127.94737 889.647059,4141.45127 C889.647059,4154.94873 900.594427,4165.8961 914.098328,4165.8961 C927.595789,4165.8961 938.543158,4154.94873 938.543158,4141.45127 C938.543158,4127.94737 927.595789,4117 914.098328,4117 L914.098328,4117 Z M909.352322,4149.91294 C904.793065,4149.91294 901.096718,4146.17152 901.096718,4141.60582 C901.096718,4137.04012 904.793065,4133.31158 909.352322,4133.31158 C911.490279,4133.31158 913.441486,4134.12297 914.903282,4135.45598 C913.177461,4137.09164 913.235418,4137.1818 912.552817,4137.8644 C911.709226,4137.15604 910.78192,4136.64731 909.352322,4136.64731 C906.641238,4136.64731 904.52904,4138.84966 904.52904,4141.56074 C904.52904,4144.27183 906.641238,4146.53858 909.352322,4146.53858 C912.024768,4146.53858 913.113065,4145.25065 913.814985,4143.31876 L909.448916,4143.31876 L909.448916,4140.09895 L917.279505,4140.09895 C917.826873,4143.96272 916.165449,4149.91294 909.352322,4149.91294 L909.352322,4149.91294 Z M926.835913,4142.03084 L924.260062,4142.03084 L924.260062,4145.25065 L922.328173,4145.25065 L922.328173,4142.03084 L919.108359,4142.03084 L919.108359,4140.09895 L922.328173,4140.09895 L922.328173,4137.5231 L924.260062,4137.5231 L924.260062,4140.09895 L926.835913,4140.09895 L926.835913,4142.03084 L926.835913,4142.03084 Z" id="Google+-Copy"></path>
        </g>
    </g>
</svg>