<?xml version="1.0" encoding="UTF-8"?>
<svg width="50px" height="49px" viewBox="0 0 50 49" version="1.1" xmlns="http://www.w3.org/2000/svg" xmlns:xlink="http://www.w3.org/1999/xlink">
    <!-- Generator: Sketch 47.1 (45422) - http://www.bohemiancoding.com/sketch -->
    <title>instagram</title>
    <desc>Created with Sketch.</desc>
    <defs></defs>
    <g id="Page-1" stroke="none" stroke-width="1" fill="none" fill-rule="evenodd">
        <g id="Desktop-HD" transform="translate(-816.000000, -4117.000000)" fill="#000000">
            <path d="M865.132037,4141.44869 C865.132037,4154.95131 854.186601,4165.89739 840.683988,4165.89739 C827.181375,4165.89739 816.235294,4154.95131 816.235294,4141.44869 C816.235294,4127.94608 827.181375,4117 840.683988,4117 C854.186601,4117 865.132037,4127.94608 865.132037,4141.44869 Z M849.917771,4129.87926 L831.920941,4129.87926 C830.370923,4129.87926 829.114551,4131.13241 829.114551,4132.67921 L829.114551,4150.68892 C829.114551,4152.23507 830.370923,4153.48887 831.920941,4153.48887 L849.917771,4153.48887 C851.467789,4153.48887 852.724161,4152.23507 852.724161,4150.68892 L852.724161,4132.67921 C852.724161,4131.13241 851.467789,4129.87926 849.917771,4129.87926 Z M846.08426,4133.56788 C846.08426,4133.16089 846.414613,4132.82989 846.821598,4132.82989 L849.034898,4132.82989 C849.442526,4132.82989 849.772879,4133.16089 849.772879,4133.56788 L849.772879,4135.78118 C849.772879,4136.1888 849.442526,4136.51916 849.034898,4136.51916 L846.821598,4136.51916 C846.414613,4136.51916 846.08426,4136.1888 846.08426,4135.78118 L846.08426,4133.56788 Z M840.946724,4137.1818 C843.454316,4137.1818 845.487307,4139.21028 845.487307,4141.71143 C845.487307,4144.21323 843.454316,4146.24107 840.946724,4146.24107 C838.439777,4146.24107 836.406786,4144.21323 836.406786,4141.71143 C836.406786,4139.21028 838.439777,4137.1818 840.946724,4137.1818 Z M850.510861,4150.53759 C850.510861,4150.94457 850.180508,4151.27557 849.772879,4151.27557 L832.065833,4151.27557 C831.658204,4151.27557 831.327851,4150.94457 831.327851,4150.53759 L831.327851,4139.47044 L834.279133,4139.47044 C833.894687,4140.0236 833.764607,4141.05588 833.764607,4141.71143 C833.764607,4145.66214 836.986997,4148.8768 840.946724,4148.8768 C844.907096,4148.8768 848.129486,4145.66214 848.129486,4141.71143 C848.129486,4141.05588 848.036111,4140.03906 847.559579,4139.47044 L850.510861,4139.47044 L850.510861,4150.53759 Z" id="instagram"></path>
        </g>
    </g>
</svg>