<?xml version="1.0" encoding="UTF-8"?>
<svg width="49px" height="49px" viewBox="0 0 49 49" version="1.1" xmlns="http://www.w3.org/2000/svg" xmlns:xlink="http://www.w3.org/1999/xlink">
    <!-- Generator: Sketch 47.1 (45422) - http://www.bohemiancoding.com/sketch -->
    <title>youtube</title>
    <desc>Created with Sketch.</desc>
    <defs></defs>
    <g id="Page-1" stroke="none" stroke-width="1" fill="none" fill-rule="evenodd">
        <g id="Desktop-HD" transform="translate(-963.000000, -4117.000000)" fill="#000000">
            <path d="M1011.95621,4141.44869 C1011.95621,4154.95131 1001.01013,4165.89739 987.507517,4165.89739 C974.004904,4165.89739 963.058824,4154.95131 963.058824,4141.44869 C963.058824,4127.94608 974.004904,4117 987.507517,4117 C1001.01013,4117 1011.95621,4127.94608 1011.95621,4141.44869 Z M1002.67542,4135.24615 C1002.67542,4135.24615 1002.37308,4133.10113 1001.44674,4132.15655 C1000.27118,4130.91623 998.953635,4130.91039 998.34992,4130.83841 C994.024421,4130.52322 987.536173,4130.52322 987.536173,4130.52322 L987.52265,4130.52322 C987.52265,4130.52322 981.034402,4130.52322 976.708904,4130.83841 C976.104223,4130.91039 974.787641,4130.91623 973.611121,4132.15655 C972.68478,4133.10113 972.383406,4135.24615 972.383406,4135.24615 C972.383406,4135.24615 972.074303,4137.76569 972.074303,4140.28426 L972.074303,4142.64621 C972.074303,4145.16576 972.383406,4147.68433 972.383406,4147.68433 C972.383406,4147.68433 972.68478,4149.82934 973.611121,4150.77393 C974.787641,4152.01425 976.332186,4151.97533 977.019938,4152.10472 C979.492755,4152.34402 987.529412,4152.41796 987.529412,4152.41796 C987.529412,4152.41796 994.024421,4152.40823 998.34992,4152.09304 C998.953635,4152.02008 1000.27118,4152.01425 1001.44674,4150.77393 C1002.37308,4149.82934 1002.67542,4147.68433 1002.67542,4147.68433 C1002.67542,4147.68433 1002.98452,4145.16576 1002.98452,4142.64621 L1002.98452,4140.28426 C1002.98452,4137.76569 1002.67542,4135.24615 1002.67542,4135.24615 Z M984.337932,4145.50818 L984.336966,4136.76177 L992.68852,4141.15005 L984.337932,4145.50818 Z" id="youtube"></path>
        </g>
    </g>
</svg>