<?xml version="1.0" encoding="UTF-8"?>
<svg width="43px" height="36px" viewBox="0 0 43 36" version="1.1" xmlns="http://www.w3.org/2000/svg" xmlns:xlink="http://www.w3.org/1999/xlink">
    <!-- Generator: Sketch 47.1 (45422) - http://www.bohemiancoding.com/sketch -->
    <title>Group 4</title>
    <desc>Created with Sketch.</desc>
    <defs>
        <path d="M19.8674982,22.4545508 L19.8717209,22.4249724 C19.8903246,22.2934408 19.9619498,22.1758 20.0689191,22.0970741 C20.1758907,22.018341 20.3107614,21.984994 20.441922,22.0062998 L23.5823481,22.5101933 C23.822333,22.5490962 24,22.7556665 24,22.9974168 L23.9990699,29.5062982 C23.9990699,29.6572813 23.9293056,29.7999317 23.811173,29.8934781 C23.7228062,29.962949 23.6139724,30 23.503274,30 L23.5031326,29.9999474 C23.4649941,29.9999474 23.426858,29.995316 23.3896505,29.9869794 L19.3824402,29.0477456 C19.1331445,28.9893912 18.9694318,28.7494881 19.0047937,28.4975413 L19.0906384,27.8962249 C19.0021406,27.9616526 18.8917733,28 18.7730867,28 L18.7729738,27.9999082 L18.5089384,27.9999082 C18.3460043,27.9999082 18.1919099,27.9256835 18.0927835,27.8000747 L17.6118259,27.1901064 L10.5488521,27.1901064 C10.4487357,27.1901064 10.3496018,27.1615581 10.2642124,27.1092215 L4.5477994,23.5274637 C4.52816886,23.5150931 4.50853832,23.500818 4.49087147,23.4855925 C4.06881173,23.134457 3.79595666,22.5006883 4.19346723,21.9401967 C4.43492349,21.5995363 4.80398014,21.411106 5.23093965,21.411106 C5.63041013,21.411106 5.95432345,21.5728759 6.01518126,21.6052318 C7.35103789,22.2152001 9.77921937,23.228655 10.4860444,23.2876324 C10.8904398,23.3209384 11.7139299,23.3637596 12.5109361,23.3561469 C12.0525677,23.2295856 11.5510059,23.1039647 11.0847727,22.9973865 C11.0651422,22.9926286 11.0464941,22.9869189 11.0278448,22.9812092 C10.3888629,22.7594877 10.2377234,22.2627627 10.3015211,21.9049523 C10.3908404,21.4063126 10.8806252,21 11.3939716,21 C12.1281601,21 13.1204791,21 15.1266009,21.0142739 C16.1517631,21.022718 19.1950356,21.7572612 19.8674982,22.4545508 Z M10.7039114,26.1747537 L17.8709113,26.1747537 C18.0338454,26.1747537 18.1879398,26.2489784 18.2870662,26.3745872 L18.3901274,26.5059062 L18.9034739,23.0184244 C18.1957945,22.7110651 16.4997159,22.0411451 15.1195854,22.0316201 C13.1182629,22.0173461 12.127954,22.0173461 11.3957506,22.0173461 C11.392806,22.0182979 11.3888801,22.0211525 11.3839723,22.0259106 C14.6484838,22.7719579 14.8595514,23.1592448 14.9605623,23.3467249 C15.0587137,23.5275278 15.051844,23.7378364 14.9438764,23.9100667 C14.7740726,24.1822248 14.4972926,24.3744309 12.4792606,24.3744309 C11.6449659,24.3744309 10.8322553,24.3382699 10.3984361,24.3021112 C9.27261678,24.2079034 5.9197835,22.6853628 5.54187207,22.5121581 C5.47905434,22.4807546 5.35145646,22.4293706 5.23366318,22.4293706 C5.1502337,22.4293706 5.1060653,22.451257 5.05895201,22.5178682 C5.05208151,22.5587869 5.10214045,22.643477 5.16004834,22.7034287 L10.7039114,26.1747537 Z M20.0502832,28.1890845 L23.0063985,28.881944 L23.0063985,23.4178413 L20.7823349,23.061227 L20.0502832,28.1890845 Z M0.532687143,20 C0.2394151,20 0.000997492687,19.9178734 0.000997492687,19.816081 L0,19.183919 C0,19.082472 0.238415053,19 0.53168965,19 L21.4683103,19 C21.7625784,19 22,19.0824712 22,19.183919 L22,19.816081 C22,19.9178725 21.7625809,20 21.4683103,20 L0.532687143,20 Z" id="path-1"></path>
        <filter x="-62.5%" y="-136.4%" width="225.0%" height="372.7%" filterUnits="objectBoundingBox" id="filter-2">
            <feOffset dx="0" dy="0" in="SourceAlpha" result="shadowOffsetOuter1"></feOffset>
            <feGaussianBlur stdDeviation="5" in="shadowOffsetOuter1" result="shadowBlurOuter1"></feGaussianBlur>
            <feColorMatrix values="0 0 0 0 0   0 0 0 0 0   0 0 0 0 0  0 0 0 0.2 0" type="matrix" in="shadowBlurOuter1"></feColorMatrix>
        </filter>
    </defs>
    <g id="Page-1" stroke="none" stroke-width="1" fill="none" fill-rule="evenodd">
        <g id="iPhone-8" transform="translate(-319.000000, -38.000000)">
            <g id="Group-4" transform="translate(329.000000, 34.000000)">
                <g id="Combined-Shape" fill-rule="nonzero" transform="translate(12.000000, 24.500000) scale(-1, 1) translate(-12.000000, -24.500000) ">
                    <use fill="black" fill-opacity="1" filter="url(#filter-2)" xlink:href="#path-1"></use>
                    <use fill="#FFFFFF" fill-rule="evenodd" xlink:href="#path-1"></use>
                </g>
                <text id="2" font-family="AvenirNext-DemiBold, Avenir Next" font-size="16" font-weight="500" fill="#FFFFFF">
                    <tspan x="8" y="16">2</tspan>
                </text>
            </g>
        </g>
    </g>
</svg>