<?xml version="1.0" encoding="UTF-8"?>
<svg width="324px" height="28px" viewBox="0 0 324 28" version="1.1" xmlns="http://www.w3.org/2000/svg" xmlns:xlink="http://www.w3.org/1999/xlink">
    <!-- Generator: Sketch 47.1 (45422) - http://www.bohemiancoding.com/sketch -->
    <title>MAGIC menus</title>
    <desc>Created with Sketch.</desc>
    <defs></defs>
    <g id="Page-1" stroke="none" stroke-width="1" fill="none" fill-rule="evenodd">
        <g id="iPhone-8-Copy-11" transform="translate(-23.000000, -324.000000)" fill="#FFFFFF">
            <path d="M30.940001,337.396 L30.940001,349.974 C30.940001,350.252668 30.8386687,350.493332 30.636001,350.696 C30.4333334,350.898668 30.1926691,351 29.914001,351 L24.936001,351 C24.657333,351 24.4166687,350.898668 24.214001,350.696 C24.0113334,350.493332 23.910001,350.252668 23.910001,349.974 L23.910001,325.426 C23.910001,325.147332 24.0113334,324.906668 24.214001,324.704 C24.4166687,324.501332 24.657333,324.4 24.936001,324.4 L29.344001,324.4 C30.0533379,324.4 30.5979991,324.741997 30.978001,325.426 L37.134001,335.952 L43.290001,325.426 C43.6700029,324.741997 44.2146642,324.4 44.924001,324.4 L49.332001,324.4 C49.6106691,324.4 49.8513334,324.501332 50.054001,324.704 C50.2566687,324.906668 50.358001,325.147332 50.358001,325.426 L50.358001,349.974 C50.358001,350.252668 50.2566687,350.493332 50.054001,350.696 C49.8513334,350.898668 49.6106691,351 49.332001,351 L44.354001,351 C44.075333,351 43.8346687,350.898668 43.632001,350.696 C43.4293334,350.493332 43.328001,350.252668 43.328001,349.974 L43.328001,337.396 L39.756001,343.666 C39.5786668,343.944668 39.3823355,344.172666 39.167001,344.35 C38.9516666,344.527334 38.679336,344.616 38.350001,344.616 L35.918001,344.616 C35.5886661,344.616 35.3163355,344.527334 35.101001,344.35 C34.8856666,344.172666 34.6893353,343.944668 34.512001,343.666 L30.940001,337.396 Z M85.4320009,349.594 C85.5333347,349.847335 85.5840009,350.037333 85.5840009,350.164 C85.5840009,350.392001 85.5016683,350.588333 85.3370009,350.753 C85.1723334,350.917667 84.976002,351 84.7480009,351 L79.9600009,351 C79.529332,351 79.1936687,350.905001 78.9530009,350.715 C78.712333,350.524999 78.5540012,350.303335 78.4780009,350.05 L77.4140009,346.896 L67.3060009,346.896 L66.2420009,350.05 C66.1660005,350.303335 66.0076687,350.524999 65.7670009,350.715 C65.526333,350.905001 65.1906697,351 64.7600009,351 L59.9720009,351 C59.7439997,351 59.5476683,350.917667 59.3830009,350.753 C59.2183334,350.588333 59.1360009,350.392001 59.1360009,350.164 C59.1360009,350.037333 59.186667,349.847335 59.2880009,349.594 L67.5720009,325.654 C67.6986682,325.299332 67.9013328,325.001668 68.1800009,324.761 C68.4586689,324.520332 68.8259986,324.4 69.2820009,324.4 L75.4380009,324.4 C75.8940031,324.4 76.2613328,324.520332 76.5400009,324.761 C76.8186689,325.001668 77.0213336,325.299332 77.1480009,325.654 L85.4320009,349.594 Z M75.4380009,341.006 L72.3600009,331.886 L69.2820009,341.006 L75.4380009,341.006 Z M99.7200007,337.434 C99.7200007,339.004675 99.7580003,340.15733 99.8340007,340.892 C99.9353345,342.184006 100.365997,343.241663 101.126001,344.065 C101.886004,344.888337 103.051326,345.3 104.622001,345.3 C106.066008,345.3 107.224996,344.964337 108.099001,344.293 C108.973005,343.621663 109.410001,342.564007 109.410001,341.12 L106.218001,341.12 C105.939333,341.12 105.698668,341.018668 105.496001,340.816 C105.293333,340.613332 105.192001,340.372668 105.192001,340.094 L105.192001,336.066 C105.192001,335.787332 105.293333,335.546668 105.496001,335.344 C105.698668,335.141332 105.939333,335.04 106.218001,335.04 L115.414001,335.04 C115.692669,335.04 115.933333,335.141332 116.136001,335.344 C116.338668,335.546668 116.440001,335.787332 116.440001,336.066 L116.440001,340.93 C116.440001,343.032677 115.920673,344.875659 114.882001,346.459 C113.843329,348.042341 112.43101,349.258329 110.645001,350.107 C108.858992,350.955671 106.851345,351.38 104.622001,351.38 C102.265989,351.38 100.214009,350.917671 98.4660007,349.993 C96.7179919,349.068329 95.3626721,347.827008 94.4000007,346.269 C93.4373292,344.710992 92.9053345,342.98201 92.8040007,341.082 C92.7533337,339.865994 92.7280007,338.865337 92.7280007,338.08 C92.7280007,337.142662 92.7533337,335.888675 92.8040007,334.318 C92.880001,332.41799 93.3993292,330.689008 94.3620007,329.131 C95.3246721,327.572992 96.6863252,326.331671 98.4470007,325.407 C100.207676,324.482329 102.265989,324.02 104.622001,324.02 C106.876679,324.02 108.871659,324.437996 110.607001,325.274 C112.342343,326.110004 113.697662,327.161327 114.673001,328.428 C115.648339,329.694673 116.174,330.923327 116.250001,332.114 C116.275334,332.342001 116.199335,332.538333 116.022001,332.703 C115.844666,332.867667 115.642002,332.95 115.414001,332.95 L110.360001,332.95 C110.030666,332.95 109.771002,332.867667 109.581001,332.703 C109.391,332.538333 109.144002,332.278668 108.840001,331.924 C108.383998,331.366664 107.84567,330.923335 107.225001,330.594 C106.604331,330.264665 105.736673,330.1 104.622001,330.1 C101.75932,330.1 100.163336,331.569319 99.8340007,334.508 C99.7580003,335.116003 99.7200007,336.091327 99.7200007,337.434 Z M126.738,350.696 C126.535333,350.493332 126.434,350.252668 126.434,349.974 L126.434,325.426 C126.434,325.147332 126.535333,324.906668 126.738,324.704 C126.940668,324.501332 127.181332,324.4 127.46,324.4 L132.438,324.4 C132.716669,324.4 132.957333,324.501332 133.16,324.704 C133.362668,324.906668 133.464,325.147332 133.464,325.426 L133.464,349.974 C133.464,350.252668 133.362668,350.493332 133.16,350.696 C132.957333,350.898668 132.716669,351 132.438,351 L127.46,351 C127.181332,351 126.940668,350.898668 126.738,350.696 Z M151.875,344.084 C152.622337,344.894671 153.793992,345.3 155.39,345.3 C156.910008,345.3 158.011997,345.00867 158.696,344.426 C159.380004,343.84333 159.861332,343.134004 160.14,342.298 C160.292001,341.867331 160.444,341.576001 160.596,341.424 C160.748001,341.271999 161.026665,341.196 161.432,341.196 L166.41,341.196 C166.638001,341.196 166.834333,341.278333 166.999,341.443 C167.163668,341.607667 167.246,341.803999 167.246,342.032 C167.220667,343.729342 166.682339,345.29366 165.631,346.725 C164.579662,348.15634 163.154676,349.289996 161.356,350.126 C159.557325,350.962004 157.568678,351.38 155.39,351.38 C153.033989,351.38 150.982009,350.917671 149.234,349.993 C147.485992,349.068329 146.130672,347.827008 145.168,346.269 C144.205329,344.710992 143.673334,342.98201 143.572,341.082 C143.521333,339.865994 143.496,338.865337 143.496,338.08 C143.496,337.142662 143.521333,335.888675 143.572,334.318 C143.648001,332.41799 144.167329,330.689008 145.13,329.131 C146.092672,327.572992 147.454325,326.331671 149.215,325.407 C150.975676,324.482329 153.033989,324.02 155.39,324.02 C157.568678,324.02 159.557325,324.437996 161.356,325.274 C163.154676,326.110004 164.579662,327.24366 165.631,328.675 C166.682339,330.10634 167.220667,331.670658 167.246,333.368 C167.246,333.596001 167.163668,333.792333 166.999,333.957 C166.834333,334.121667 166.638001,334.204 166.41,334.204 L161.432,334.204 C161.026665,334.204 160.748001,334.128001 160.596,333.976 C160.444,333.823999 160.292001,333.532669 160.14,333.102 C159.861332,332.265996 159.380004,331.55667 158.696,330.974 C158.011997,330.39133 156.910008,330.1 155.39,330.1 C153.793992,330.1 152.622337,330.505329 151.875,331.316 C151.127663,332.126671 150.703334,333.19066 150.602,334.508 C150.551333,335.369338 150.526,336.433327 150.526,337.7 C150.526,338.916006 150.551333,339.979995 150.602,340.892 C150.703334,342.20934 151.127663,343.273329 151.875,344.084 Z M197.646,337.396 L197.646,349.974 C197.646,350.252668 197.544668,350.493332 197.342,350.696 C197.139332,350.898668 196.898668,351 196.62,351 L191.642,351 C191.363332,351 191.122668,350.898668 190.92,350.696 C190.717332,350.493332 190.616,350.252668 190.616,349.974 L190.616,325.426 C190.616,325.147332 190.717332,324.906668 190.92,324.704 C191.122668,324.501332 191.363332,324.4 191.642,324.4 L196.05,324.4 C196.759337,324.4 197.303998,324.741997 197.684,325.426 L203.84,335.952 L209.996,325.426 C210.376002,324.741997 210.920663,324.4 211.63,324.4 L216.038,324.4 C216.316668,324.4 216.557332,324.501332 216.76,324.704 C216.962668,324.906668 217.064,325.147332 217.064,325.426 L217.064,349.974 C217.064,350.252668 216.962668,350.493332 216.76,350.696 C216.557332,350.898668 216.316668,351 216.038,351 L211.06,351 C210.781332,351 210.540668,350.898668 210.338,350.696 C210.135332,350.493332 210.034,350.252668 210.034,349.974 L210.034,337.396 L206.462,343.666 C206.284666,343.944668 206.088334,344.172666 205.873,344.35 C205.657665,344.527334 205.385335,344.616 205.056,344.616 L202.624,344.616 C202.294665,344.616 202.022334,344.527334 201.807,344.35 C201.591665,344.172666 201.395334,343.944668 201.218,343.666 L197.646,337.396 Z M235.114,340.664 L245.982,340.664 C246.260668,340.664 246.501332,340.562668 246.704,340.36 C246.906667,340.157332 247.008,339.916668 247.008,339.638 L247.008,335.61 C247.008,335.331332 246.906667,335.090668 246.704,334.888 C246.501332,334.685332 246.260668,334.584 245.982,334.584 L235.114,334.584 L235.114,330.48 L246.818,330.48 C247.096668,330.48 247.337332,330.378668 247.54,330.176 C247.742667,329.973332 247.844,329.732668 247.844,329.454 L247.844,325.426 C247.844,325.147332 247.742667,324.906668 247.54,324.704 C247.337332,324.501332 247.096668,324.4 246.818,324.4 L229.11,324.4 C228.831332,324.4 228.590667,324.501332 228.388,324.704 C228.185332,324.906668 228.084,325.147332 228.084,325.426 L228.084,349.974 C228.084,350.252668 228.185332,350.493332 228.388,350.696 C228.590667,350.898668 228.831332,351 229.11,351 L247.122,351 C247.400668,351 247.641332,350.898668 247.844,350.696 C248.046667,350.493332 248.148,350.252668 248.148,349.974 L248.148,345.946 C248.148,345.667332 248.046667,345.426668 247.844,345.224 C247.641332,345.021332 247.400668,344.92 247.122,344.92 L235.114,344.92 L235.114,340.664 Z M274.52,350.715 C274.241331,350.524999 274.051333,350.328668 273.95,350.126 L265.248,337.13 L265.248,349.974 C265.248,350.252668 265.146667,350.493332 264.944,350.696 C264.741332,350.898668 264.500668,351 264.222,351 L259.244,351 C258.965331,351 258.724667,350.898668 258.522,350.696 C258.319332,350.493332 258.218,350.252668 258.218,349.974 L258.218,325.426 C258.218,325.147332 258.319332,324.906668 258.522,324.704 C258.724667,324.501332 258.965331,324.4 259.244,324.4 L263.196,324.4 C263.576001,324.4 263.905331,324.494999 264.184,324.685 C264.462668,324.875001 264.652666,325.071332 264.754,325.274 L273.456,338.27 L273.456,325.426 C273.456,325.147332 273.557332,324.906668 273.76,324.704 C273.962667,324.501332 274.203331,324.4 274.482,324.4 L279.46,324.4 C279.738668,324.4 279.979332,324.501332 280.182,324.704 C280.384667,324.906668 280.486,325.147332 280.486,325.426 L280.486,349.974 C280.486,350.252668 280.384667,350.493332 280.182,350.696 C279.979332,350.898668 279.738668,351 279.46,351 L275.508,351 C275.127998,351 274.798668,350.905001 274.52,350.715 Z M314.039999,324.704 C314.242667,324.906668 314.343999,325.147332 314.343999,325.426 L314.343999,340.588 C314.343999,342.868011 313.862671,344.818659 312.899999,346.44 C311.937328,348.061341 310.588341,349.289996 308.852999,350.126 C307.117657,350.962004 305.097344,351.38 302.791999,351.38 C300.461321,351.38 298.428341,350.962004 296.692999,350.126 C294.957657,349.289996 293.615004,348.061341 292.664999,346.44 C291.714995,344.818659 291.239999,342.868011 291.239999,340.588 L291.239999,325.426 C291.239999,325.147332 291.341332,324.906668 291.543999,324.704 C291.746667,324.501332 291.987331,324.4 292.265999,324.4 L297.243999,324.4 C297.522667,324.4 297.763332,324.501332 297.965999,324.704 C298.168667,324.906668 298.269999,325.147332 298.269999,325.426 L298.269999,340.436 C298.269999,341.981341 298.656329,343.178329 299.428999,344.027 C300.20167,344.875671 301.322659,345.3 302.791999,345.3 C304.26134,345.3 305.382329,344.875671 306.154999,344.027 C306.92767,343.178329 307.313999,341.981341 307.313999,340.436 L307.313999,325.426 C307.313999,325.147332 307.415332,324.906668 307.617999,324.704 C307.820667,324.501332 308.061331,324.4 308.339999,324.4 L313.317999,324.4 C313.596667,324.4 313.837332,324.501332 314.039999,324.704 Z M345.902999,332.095 C345.738332,332.259667 345.554667,332.342 345.351999,332.342 L340.373999,332.342 C340.019331,332.342 339.740667,332.297667 339.537999,332.209 C339.335331,332.120333 339.107334,331.962001 338.853999,331.734 C338.803332,331.683333 338.638667,331.512335 338.359999,331.221 C338.081331,330.929665 337.644335,330.670001 337.048999,330.442 C336.453663,330.213999 335.763336,330.1 334.977999,330.1 C333.88866,330.1 332.995669,330.245665 332.298999,330.537 C331.602329,330.828335 331.253999,331.328663 331.253999,332.038 C331.253999,332.544669 331.46933,332.943665 331.899999,333.235 C332.330668,333.526335 332.995661,333.785999 333.894999,334.014 C334.794337,334.242001 336.358655,334.583998 338.587999,335.04 C341.45068,335.62267 343.553326,336.53466 344.895999,337.776 C346.238673,339.01734 346.909999,340.790655 346.909999,343.096 C346.909999,344.768008 346.409671,346.230994 345.408999,347.485 C344.408327,348.739006 343.015008,349.701663 341.228999,350.373 C339.44299,351.044337 337.422677,351.38 335.167999,351.38 C332.989322,351.38 331.013341,351.000004 329.239999,350.24 C327.466657,349.479996 326.073338,348.492006 325.059999,347.276 C324.046661,346.059994 323.514666,344.806006 323.463999,343.514 C323.463999,343.285999 323.546332,343.089667 323.710999,342.925 C323.875667,342.760333 324.059331,342.678 324.261999,342.678 L329.239999,342.678 C329.797335,342.678 330.278664,342.855332 330.683999,343.21 C330.76,343.286 330.962664,343.507665 331.291999,343.875 C331.621334,344.242335 332.121662,344.571665 332.792999,344.863 C333.464336,345.154335 334.255995,345.3 335.167999,345.3 C338.309348,345.3 339.879999,344.628673 339.879999,343.286 C339.879999,342.855331 339.658335,342.494335 339.214999,342.203 C338.771664,341.911665 338.14467,341.664668 337.333999,341.462 C336.523328,341.259332 335.231341,340.968002 333.457999,340.588 L331.747999,340.246 C329.163986,339.688664 327.264005,338.757673 326.047999,337.453 C324.831993,336.148327 324.223999,334.406678 324.223999,332.228 C324.223999,330.758659 324.667328,329.397006 325.553999,328.143 C326.44067,326.888994 327.700991,325.888337 329.334999,325.141 C330.969007,324.393663 332.849989,324.02 334.977999,324.02 C337.030009,324.02 338.904657,324.406329 340.601999,325.179 C342.299341,325.951671 343.635661,326.920661 344.610999,328.086 C345.586337,329.251339 346.099332,330.391328 346.149999,331.506 C346.149999,331.734001 346.067667,331.930333 345.902999,332.095 Z" id="MAGIC-menus"></path>
        </g>
    </g>
</svg>