<?xml version="1.0" encoding="UTF-8"?>
<svg width="94px" height="90px" viewBox="0 0 94 90" version="1.1" xmlns="http://www.w3.org/2000/svg" xmlns:xlink="http://www.w3.org/1999/xlink">
    <!-- Generator: Sketch 47.1 (45422) - http://www.bohemiancoding.com/sketch -->
    <title>Combined Shape</title>
    <desc>Created with Sketch.</desc>
    <defs></defs>
    <g id="Page-1" stroke="none" stroke-width="1" fill="none" fill-rule="evenodd">
        <path d="M67.1778561,40 C67.1440734,43.7773088 67.1462394,48.4219397 67.1844062,53.9326394 C70.8148626,53.6825888 74.1625511,52.7356953 77.2354951,51.0805963 C77,46.9663197 77.5601696,42.8022877 77.2369433,40 C75.0015906,40 71.6485616,40 67.1778561,40 Z M83.8698143,51.1188079 L84.19924,61.898 C84.19924,63.398 83.69924,64.7964 82.80084,65.6988 C82.10162,66.60114 81.00004,66.9996 80.00004,66.9996 C78.99996,67 77.89836,66.60156 77.19916,65.8008 C76.30072,64.8008 75.69916,63.4024 75.80076,62 L75.9823521,56.0580946 C73.1275538,57.1644514 70.0801273,57.8000917 66.8437421,57.9598186 C65.6906162,70.2566798 58.2536551,80.7328218 47.8131088,86.1134632 L65.0702811,86.117369 C66.1376978,86.117369 66.9994038,86.9884311 66.9994038,88.0586845 C66.9994038,89.1328478 66.1338126,90 65.0702811,90 L1.92912272,90 C0.861705949,90 0,89.1289379 0,88.0586845 L0,87.2501207 L0,35.8301402 L0,31.9826077 C0,26.2838558 1.34682854,21.178678 4.12991647,16.2452928 C9.59513484,6.55441466 19.9393027,0 31.7779594,0 L35.2248229,0 C47.0525491,0 57.3809176,6.53881534 62.8500113,16.2102943 C66.1571043,20.6601006 66.9994038,26.5423445 66.9994038,31.9796078 L66.9995097,36 C74.1748613,36 77,36 77,36 C77.5601696,37.9729417 77.2369433,50.8751801 77.5601696,55.3896899 C77.0409523,55.6288559 76.5150051,55.8516687 75.9823521,56.0580946 L76.6992,32.602 C73.3008,30.602 71,25.8012 71,20.301 C71,12.8987 75,7 80,7 C85,7 89,12.8984 89,20.199 C89,25.699 86.6992,30.5 83.3008,32.5 L83.4077644,36 C85.1057456,36 87.9867156,36 91.6498765,36 C93.1667854,36 94.1315279,37.6226156 93.4069783,38.9552974 C90.6609417,44.0061499 87.477991,48.0661709 83.8698143,51.1188079 Z M35.2254191,3.88383092 L31.7774625,3.88383092 C25.803482,3.88383092 20.2688057,5.78604811 15.7196573,9.01250766 C16.7715628,8.82501582 17.8467203,8.70783092 18.9529798,8.70783092 C24.8221275,8.70783092 30.0971563,11.461611 33.4974164,15.8091218 C36.8977759,11.4577112 42.1730035,8.70783092 48.041853,8.70783092 C49.1442373,8.70783092 50.2193948,8.82501582 51.2713003,9.01250766 C46.7302006,5.78604811 41.1952262,3.88383092 35.2254191,3.88383092 Z M5.55059502,22.3443273 C5.23619591,23.2192892 4.96060979,24.1137902 4.72809953,25.0239396 C4.6155359,26.2582859 4.499087,27.473033 4.38263811,28.7112791 C4.66990986,31.746247 5.87315221,34.5040269 7.70916748,36.7187305 C9.84795585,38.9217346 9.84795585,38.9217346 12.2816673,40.40607 C13.7295527,41.1521375 15.3092989,41.6755547 16.9861272,41.9021049 L18.2204717,42.0505384 L48.8614669,42.0075713 C55.7197197,41.6245879 61.3247483,36.5038109 62.4658859,29.8361011 C62.7608885,28.1291754 62.6250331,26.3675521 62.1786539,24.6957249 C61.9651725,23.8949598 61.7167535,23.1059241 61.4372821,22.3364276 C59.4886834,16.9773609 54.6984691,13.0087537 49.0391858,12.6220505 C48.7092655,12.5986135 48.37545,12.5868961 48.0416344,12.5868961 C41.2877176,12.5868961 35.6089582,17.1878958 33.9205038,23.4454233 C33.8040549,23.8829043 33.1946533,23.8829043 33.0782044,23.4454233 C31.3899487,17.1882957 25.7109907,12.5868961 18.9570738,12.5868961 C18.6193928,12.5868961 18.2855773,12.5986135 17.955647,12.6220505 C12.2928859,13.0088337 7.50296976,16.9812607 5.55059502,22.3443273 Z M3.85436016,38.9213056 L3.8585336,84.2242134 C12.0561624,79.7284092 17.222483,71.1350833 17.222483,61.5651999 C17.222483,54.6355015 14.5092505,48.2295804 9.91349872,43.5109858 C8.18619161,41.624268 7.18476487,41.3157814 5.22454009,39.7220508 C4.77817086,39.440813 4.32014582,39.1752046 3.85436016,38.9213056 Z M8.18579414,86.1142512 L31.8366061,86.1139642 C49.0977531,86.1139642 63.141377,71.9815794 63.141377,54.6153354 L63.141377,38.0260576 C60.1017219,42.3461695 55.2848771,45.3304296 49.7148259,45.8343177 C49.4392299,45.896815 49.1558832,45.9280636 48.8647659,45.9280636 L16.9856503,45.9280636 C16.8653161,45.9280636 16.7566378,45.9007208 16.6401889,45.8890023 C19.4775315,50.4868021 21.0767538,55.8692678 21.0767538,61.5643199 C21.0767538,71.5718842 16.1662054,80.6613885 8.18579414,86.1142512 Z M51.0888613,28.0065808 C51.0888613,26.6784386 50.0136045,25.5964857 48.6940026,25.5964857 C47.3743015,25.5964857 46.3030133,26.6785386 46.3068946,28.0065808 C46.047196,28.6823227 45.4256742,29.0156415 44.4423294,29.0065372 C43.4589846,28.997433 42.8875651,28.6641142 42.7280709,28.0065808 C42.7280709,24.694225 45.406326,21.9990423 48.697878,21.9990423 C51.98943,21.9990423 54.6676851,24.694225 54.6676851,28.0065808 C54.5058409,28.6910693 53.9202583,29.0243881 52.9109373,29.0065372 C51.9016162,28.9886864 51.2942575,28.6553676 51.0888613,28.0065808 Z M20.9912082,28.0075807 C20.9912082,26.6794386 19.9159513,25.5974857 18.5963495,25.5974857 C17.2766483,25.5974857 16.2014779,26.6795386 16.2092415,28.0075807 C15.97305,28.6742184 15.3804183,29.0075372 14.4313463,29.0075372 C13.4822744,29.0075372 12.8819648,28.6742184 12.6304178,28.0075807 C12.6304178,24.6952249 15.3086729,22.0000423 18.6002248,22.0000423 C21.8917768,22.0000423 24.5700319,24.6952249 24.5700319,28.0075807 C24.4631035,28.6738803 23.8596438,29.0071991 22.7596527,29.0075372 C21.6596616,29.0078753 21.0701801,28.6745565 20.9912082,28.0075807 Z M37.1652735,34.8944809 L33.501093,41.1989065 L29.8369125,34.8944809 L33.501093,31.4180323 L37.1652735,34.8944809 Z M73.99996,20.199 C73.99996,25.199 76.10156,29.5974 79.10156,31 C79.5,31.19922 79.70312,31.5 79.70312,31.89844 L78.80468,61.89844 C78.80468,62.79688 78.7437369,63.9483066 79.99992,63.9701276 C81.2561031,63.9919486 81.39836,62.79684 81.3007,61.89844 L80.40226,31.89844 C80.40226,31.5 80.60148,31.09766 81.00382,31 C84.00382,29.6016 86.10542,25.1992 86.10542,20.199 C85.99995,13.9998 83.89842,10 79.99992,10 C76.10156,10 73.99996,14 73.99996,20.199 Z M83.1835943,46.7589768 C85.284044,44.8025206 86.8776873,42.8069501 88.6630243,40 C86.2281435,40 84.3404688,40 83,40 C83.104523,43.7251944 83.1247435,43.924784 83.1835943,46.7589768 Z" id="Combined-Shape" fill="#000000" fill-rule="nonzero"></path>
    </g>
</svg>