<?xml version="1.0" encoding="UTF-8"?>
<svg width="22px" height="22px" viewBox="0 0 22 22" version="1.1" xmlns="http://www.w3.org/2000/svg" xmlns:xlink="http://www.w3.org/1999/xlink">
    <!-- Generator: Sketch 47.1 (45422) - http://www.bohemiancoding.com/sketch -->
    <title>ic_zoom_out_black_48px</title>
    <desc>Created with Sketch.</desc>
    <defs></defs>
    <g id="Page-1" stroke="none" stroke-width="1" fill="none" fill-rule="evenodd">
        <g id="iPhone-8-Copy-2" transform="translate(-344.000000, -38.000000)">
            <g id="ic_zoom_out_black_48px" transform="translate(341.000000, 35.000000)">
                <g id="Group">
                    <polygon id="Shape" points="0 0 29 0 29 29 0 29"></polygon>
                    <path d="M18.7291667,16.9166667 L17.7745833,16.9166667 L17.43625,16.5904167 C18.6204167,15.2129167 19.3333333,13.4245833 19.3333333,11.4791667 C19.3333333,7.14125 15.8170833,3.625 11.4791667,3.625 C7.14125,3.625 3.625,7.14125 3.625,11.4791667 C3.625,15.8170833 7.14125,19.3333333 11.4791667,19.3333333 C13.4245833,19.3333333 15.2129167,18.6204167 16.5904167,17.43625 L16.9166667,17.7745833 L16.9166667,18.7291667 L22.9583333,24.75875 L24.75875,22.9583333 L18.7291667,16.9166667 L18.7291667,16.9166667 Z M11.4791667,16.9166667 C8.47041667,16.9166667 6.04166667,14.4879167 6.04166667,11.4791667 C6.04166667,8.47041667 8.47041667,6.04166667 11.4791667,6.04166667 C14.4879167,6.04166667 16.9166667,8.47041667 16.9166667,11.4791667 C16.9166667,14.4879167 14.4879167,16.9166667 11.4791667,16.9166667 Z" id="Shape" fill="#000000" fill-rule="nonzero"></path>
                </g>
            </g>
        </g>
    </g>
</svg>