<?xml version="1.0" encoding="UTF-8"?>
<svg width="286px" height="36px" viewBox="0 0 286 36" version="1.1" xmlns="http://www.w3.org/2000/svg" xmlns:xlink="http://www.w3.org/1999/xlink">
    <!-- Generator: Sketch 47.1 (45422) - http://www.bohemiancoding.com/sketch -->
    <title>Search</title>
    <desc>Created with Sketch.</desc>
    <defs></defs>
    <g id="Page-1" stroke="none" stroke-width="1" fill="none" fill-rule="evenodd">
        <g id="iPhone-8-Copy-4" transform="translate(-15.000000, -30.000000)">
            <g id="UI-Bars-/-Search-Bar-/-Overrides-/-Light-/-Search" transform="translate(15.000000, 30.000000)">
                <rect id="Search-Field" fill="#F5F5F5" fill-rule="evenodd" x="0" y="0" width="286" height="36" rx="18"></rect>
                <g id="Graphics-/-Custom-Icons-/-Misc-/-Search-Mic" transform="translate(264.000000, 9.000000)" fill-rule="evenodd" fill="#8E8E93">
                    <path d="M6,0 L6,0 C7.65685425,0 9,1.34314575 9,3 L9,10 C9,11.6568542 7.65685425,13 6,13 L6,13 C4.34314575,13 3,11.6568542 3,10 L3,3 C3,1.34314575 4.34314575,0 6,0 Z M11.25,6.5 C10.8357864,6.5 10.5,6.83578644 10.5,7.25 L10.5,10 C10.5,12.4852814 8.48528137,14.5 6,14.5 C3.51471863,14.5 1.5,12.4852814 1.5,10 L1.5,7.25 C1.5,6.83578644 1.16421356,6.5 0.75,6.5 C0.335786438,6.5 0,6.83578644 0,7.25 L0,10 C0.00148134437,13.0225955 2.25111105,15.5721759 5.25,15.95 L5.25,17.5 L3.25,17.5 C2.83578644,17.5 2.5,17.8357864 2.5,18.25 C2.5,18.6642136 2.83578644,19 3.25,19 L8.75,19 C9.16421356,19 9.5,18.6642136 9.5,18.25 C9.5,17.8357864 9.16421356,17.5 8.75,17.5 L6.75,17.5 L6.75,15.95 C9.74888895,15.5721759 11.9985187,13.0225955 12,10 L12,7.25 C12,6.83578644 11.6642136,6.5 11.25,6.5 L11.25,6.5 Z" id="Dictation"></path>
                </g>
                <text id="Search" font-family=".AppleSystemUIFont" font-size="17" font-weight="normal" line-spacing="22" letter-spacing="-0.409999996" fill="#8E8E93">
                    <tspan x="31" y="23">Search</tspan>
                </text>
                <g id="Graphics-/-Custom-Icons-/-Misc-/-Search-small" transform="translate(10.000000, 11.000000)" fill-rule="evenodd" fill="#8E8E93">
                    <path d="M13.7430947,12.5740557 L9.91009465,8.73955572 C10.5971654,7.80245935 10.9652265,6.66953223 10.9600947,5.50755572 C10.946985,2.47441147 8.49371664,0.0175744397 5.46059465,5.57178262e-05 C4.00907481,-0.00651157295 2.61521603,0.567712287 1.58953064,1.59480646 C0.56384524,2.62190064 -0.00846492859,4.01654626 9.46502197e-05,5.46805572 C0.0132043609,8.50147611 2.46669652,10.958537 5.50009465,10.9760557 C6.66680484,10.9811124 7.80387114,10.6087552 8.74159465,9.91455572 L8.74559465,9.91155572 L12.5750947,13.7430557 C12.7821435,13.9602692 13.0906604,14.0481921 13.3811096,13.9727584 C13.6715587,13.8973248 13.898302,13.6703873 13.9734871,13.3798737 C14.0486722,13.0893602 13.9604853,12.7809186 13.7430947,12.5740557 L13.7430947,12.5740557 Z M5.49609465,9.87805572 C3.06950871,9.86409673 1.1067469,7.89865842 1.09609465,5.47205572 C1.08954524,4.31099854 1.54743104,3.19550612 2.36782487,2.37389147 C3.1882187,1.55227681 4.30302902,1.09273279 5.46409465,1.09755572 C7.89068059,1.1115147 9.8534424,3.07695301 9.86409465,5.50355572 C9.87064406,6.6646129 9.41275826,7.78010532 8.59236443,8.60171997 C7.7719706,9.42333462 6.65716028,9.88287864 5.49609465,9.87805572 Z" id="Search"></path>
                </g>
            </g>
        </g>
    </g>
</svg>