<?xml version="1.0" encoding="UTF-8"?>
<svg width="49px" height="49px" viewBox="0 0 49 49" version="1.1" xmlns="http://www.w3.org/2000/svg" xmlns:xlink="http://www.w3.org/1999/xlink">
    <!-- Generator: Sketch 47.1 (45422) - http://www.bohemiancoding.com/sketch -->
    <title>Facebook Copy 3</title>
    <desc>Created with Sketch.</desc>
    <defs></defs>
    <g id="Page-1" stroke="none" stroke-width="1" fill="none" fill-rule="evenodd">
        <g id="Desktop-HD" transform="translate(-596.000000, -4117.000000)" fill="#000000">
            <path d="M620.451269,4117 C606.947368,4117 596,4127.94737 596,4141.45127 C596,4154.94873 606.947368,4165.8961 620.451269,4165.8961 C633.948731,4165.8961 644.896099,4154.94873 644.896099,4141.45127 C644.896099,4127.94737 633.948731,4117 620.451269,4117 L620.451269,4117 Z M632.345263,4151.78687 C632.345263,4152.50811 631.991084,4152.9782 631.276285,4152.9782 L625.261672,4152.9782 L625.261672,4143.96272 L628.320495,4143.96272 L628.784149,4140.09895 L625.261672,4140.09895 L625.261672,4138.08978 C625.261672,4137.05944 625.538576,4136.23517 627.01969,4136.23517 L629.125449,4136.23517 L629.125449,4133.16347 C628.481486,4133.11839 627.483344,4133.0218 626.176099,4133.0218 C623.458576,4133.0218 621.397895,4134.68322 621.397895,4137.7356 L621.397895,4140.09895 L618.17808,4140.09895 L618.17808,4143.96272 L621.397895,4143.96272 L621.397895,4152.9782 L610.244458,4152.9782 C609.52322,4152.9782 609.162601,4152.50811 609.162601,4151.78687 L609.162601,4130.75505 C609.162601,4130.03381 609.52322,4129.15158 610.244458,4129.15158 L631.276285,4129.15158 C631.991084,4129.15158 632.345263,4130.03381 632.345263,4130.75505 L632.345263,4151.78687 L632.345263,4151.78687 Z" id="Facebook-Copy-3"></path>
        </g>
    </g>
</svg>