<?xml version="1.0" encoding="UTF-8"?>
<svg width="327px" height="31px" viewBox="0 0 327 31" version="1.1" xmlns="http://www.w3.org/2000/svg" xmlns:xlink="http://www.w3.org/1999/xlink">
    <!-- Generator: Sketch 47.1 (45422) - http://www.bohemiancoding.com/sketch -->
    <title>magicMenus Copy</title>
    <desc>Created with Sketch.</desc>
    <defs></defs>
    <g id="Page-1" stroke="none" stroke-width="1" fill="none" fill-rule="evenodd">
        <path d="M7.91508575,15.060055 L7.91508575,29.2216409 C7.91508575,29.5353936 7.80099556,29.8063578 7.57281177,30.0345416 C7.34462797,30.2627254 7.07366379,30.3768156 6.75991107,30.3768156 L1.15517468,30.3768156 C0.841421961,30.3768156 0.570457771,30.2627254 0.342273978,30.0345416 C0.114090185,29.8063578 0,29.5353936 0,29.2216409 L0,1.58301715 C0,1.26926443 0.114090185,0.998300244 0.342273978,0.770116451 C0.570457771,0.541932658 0.841421961,0.427842473 1.15517468,0.427842473 L6.11814736,0.427842473 C6.91679064,0.427842473 7.53002538,0.812896848 7.95786999,1.58301715 L14.8889181,13.4342536 L21.8199661,1.58301715 C22.2478107,0.812896848 22.8610455,0.427842473 23.6596887,0.427842473 L28.6226614,0.427842473 C28.9364141,0.427842473 29.2073783,0.541932658 29.4355621,0.770116451 C29.6637459,0.998300244 29.7778361,1.26926443 29.7778361,1.58301715 L29.7778361,29.2216409 C29.7778361,29.5353936 29.6637459,29.8063578 29.4355621,30.0345416 C29.2073783,30.2627254 28.9364141,30.3768156 28.6226614,30.3768156 L23.017925,30.3768156 C22.7041723,30.3768156 22.4332081,30.2627254 22.2050243,30.0345416 C21.9768405,29.8063578 21.8627504,29.5353936 21.8627504,29.2216409 L21.8627504,15.060055 L17.8410311,22.1194558 C17.6413703,22.4332086 17.4203206,22.6899115 17.1778753,22.8895723 C16.93543,23.0892331 16.6288126,23.189062 16.258014,23.189062 L13.5198221,23.189062 C13.1490235,23.189062 12.8424061,23.0892331 12.5999608,22.8895723 C12.3575155,22.6899115 12.1364658,22.4332086 11.936805,22.1194558 L7.91508575,15.060055 Z M69.2676961,28.7937984 C69.381788,29.0790282 69.4388331,29.2929473 69.4388331,29.4355621 C69.4388331,29.6922689 69.3461348,29.9133186 69.1607355,30.098718 C68.9753362,30.2841173 68.7542864,30.3768156 68.4975797,30.3768156 L63.1067645,30.3768156 C62.621874,30.3768156 62.2439502,30.269856 61.972982,30.0559337 C61.7020137,29.8420114 61.5237478,29.5924391 61.4381789,29.3072094 L60.24022,25.7561169 L48.8596102,25.7561169 L47.6616513,29.3072094 C47.5760823,29.5924391 47.3978164,29.8420114 47.1268482,30.0559337 C46.8558799,30.269856 46.4779562,30.3768156 45.9930656,30.3768156 L40.6022505,30.3768156 C40.3455437,30.3768156 40.1244939,30.2841173 39.9390946,30.098718 C39.7536953,29.9133186 39.660997,29.6922689 39.660997,29.4355621 C39.660997,29.2929473 39.7180421,29.0790282 39.832134,28.7937984 L49.1590999,1.83972263 C49.3017148,1.440401 49.5298951,1.10526108 49.8436479,0.834292822 C50.1574006,0.563324568 50.5709775,0.427842473 51.084391,0.427842473 L58.0154391,0.427842473 C58.5288526,0.427842473 58.9424295,0.563324568 59.2561823,0.834292822 C59.569935,1.10526108 59.7981153,1.440401 59.9407302,1.83972263 L69.2676961,28.7937984 Z M58.0154391,19.1245585 L54.5499151,8.85633919 L51.084391,19.1245585 L58.0154391,19.1245585 Z M85.3545729,15.1028393 C85.3545729,16.8712637 85.3973567,18.1690395 85.4829256,18.9962058 C85.5970175,20.4508775 86.0819008,21.6416938 86.93759,22.5686904 C87.7932793,23.4956871 89.1053164,23.9591785 90.8737408,23.9591785 C92.4995503,23.9591785 93.8044568,23.5812547 94.7884994,22.8253959 C95.772542,22.0695371 96.2645559,20.8787208 96.2645559,19.2529113 L92.6706792,19.2529113 C92.3569265,19.2529113 92.0859623,19.1388211 91.8577785,18.9106373 C91.6295947,18.6824535 91.5155045,18.4114893 91.5155045,18.0977366 L91.5155045,13.5626064 C91.5155045,13.2488537 91.6295947,12.9778895 91.8577785,12.7497057 C92.0859623,12.5215219 92.3569265,12.4074317 92.6706792,12.4074317 L103.024467,12.4074317 C103.33822,12.4074317 103.609184,12.5215219 103.837368,12.7497057 C104.065552,12.9778895 104.179642,13.2488537 104.179642,13.5626064 L104.179642,19.03899 C104.179642,21.4063969 103.594929,23.4814121 102.425488,25.264098 C101.256046,27.0467839 99.6659137,28.4158661 97.655044,29.3713858 C95.6441743,30.3269054 93.3837625,30.804658 90.8737408,30.804658 C88.2211042,30.804658 85.9107779,30.2841216 83.9426927,29.243033 C81.9746075,28.2019445 80.4486513,26.8043397 79.3647783,25.0501768 C78.2809053,23.2960139 77.6819318,21.3493501 77.5678399,19.210127 C77.5107939,17.8410243 77.4822714,16.7143837 77.4822714,15.8301715 C77.4822714,14.7748214 77.5107939,13.3629554 77.5678399,11.594531 C77.6534088,9.45530795 78.238121,7.50864417 79.321994,5.75448126 C80.405867,4.00031835 81.9389539,2.60271358 83.9213006,1.56162503 C85.9036473,0.52053647 88.2211042,0 90.8737408,0 C93.4122855,0 95.658436,0.470622014 97.6122597,1.41188016 C99.5660835,2.35313831 101.09204,3.53682398 102.190174,4.96297268 C103.288309,6.38912139 103.880152,7.77246489 103.96572,9.11304467 C103.994243,9.36975144 103.908676,9.59080117 103.709015,9.7762005 C103.509354,9.96159983 103.281174,10.0542981 103.024467,10.0542981 L97.3341621,10.0542981 C96.9633635,10.0542981 96.6710074,9.96159983 96.4570851,9.7762005 C96.2431627,9.59080117 95.9650679,9.29844507 95.6227922,8.89912343 C95.1093787,8.271618 94.5032746,7.77247344 93.8044617,7.40167478 C93.1056489,7.03087612 92.1287516,6.84547956 90.8737408,6.84547956 C87.6506447,6.84547956 85.8537243,8.49978725 85.4829256,11.8084522 C85.3973567,12.4930036 85.3545729,13.5911217 85.3545729,15.1028393 Z M115.774172,30.0345416 C115.545989,29.8063578 115.431899,29.5353936 115.431899,29.2216409 L115.431899,1.58301715 C115.431899,1.26926443 115.545989,0.998300244 115.774172,0.770116451 C116.002356,0.541932658 116.27332,0.427842473 116.587073,0.427842473 L122.19181,0.427842473 C122.505562,0.427842473 122.776526,0.541932658 123.00471,0.770116451 C123.232894,0.998300244 123.346984,1.26926443 123.346984,1.58301715 L123.346984,29.2216409 C123.346984,29.5353936 123.232894,29.8063578 123.00471,30.0345416 C122.776526,30.2627254 122.505562,30.3768156 122.19181,30.3768156 L116.587073,30.3768156 C116.27332,30.3768156 116.002356,30.2627254 115.774172,30.0345416 Z M144.075952,22.5900826 C144.91738,23.5028177 146.236547,23.9591785 148.033495,23.9591785 C149.744873,23.9591785 150.985604,23.6311692 151.755724,22.9751408 C152.525845,22.3191124 153.067773,21.5204811 153.381526,20.5792229 C153.552663,20.0943324 153.723799,19.7663231 153.894937,19.5951853 C154.066074,19.4240474 154.379822,19.3384798 154.83619,19.3384798 L160.440926,19.3384798 C160.697633,19.3384798 160.918683,19.431178 161.104082,19.6165774 C161.289482,19.8019767 161.38218,20.0230264 161.38218,20.2797332 C161.353657,22.1907725 160.747553,23.9520397 159.563849,25.5635877 C158.380146,27.1751358 156.775753,28.4515197 154.750622,29.3927779 C152.72549,30.334036 150.48647,30.804658 148.033495,30.804658 C145.380858,30.804658 143.070532,30.2841216 141.102447,29.243033 C139.134361,28.2019445 137.608405,26.8043397 136.524532,25.0501768 C135.440659,23.2960139 134.841686,21.3493501 134.727594,19.210127 C134.670548,17.8410243 134.642025,16.7143837 134.642025,15.8301715 C134.642025,14.7748214 134.670548,13.3629554 134.727594,11.594531 C134.813163,9.45530795 135.397875,7.50864417 136.481748,5.75448126 C137.565621,4.00031835 139.098708,2.60271358 141.081055,1.56162503 C143.063401,0.52053647 145.380858,0 148.033495,0 C150.48647,0 152.72549,0.470622014 154.750622,1.41188016 C156.775753,2.35313831 158.380146,3.62952225 159.563849,5.24107029 C160.747553,6.85261833 161.353657,8.61388556 161.38218,10.5249248 C161.38218,10.7816316 161.289482,11.0026813 161.104082,11.1880807 C160.918683,11.37348 160.697633,11.4661783 160.440926,11.4661783 L154.83619,11.4661783 C154.379822,11.4661783 154.066074,11.3806106 153.894937,11.2094728 C153.723799,11.0383349 153.552663,10.7103257 153.381526,10.2254351 C153.067773,9.28417695 152.525845,8.48554566 151.755724,7.82951725 C150.985604,7.17348885 149.744873,6.84547956 148.033495,6.84547956 C146.236547,6.84547956 144.91738,7.3018403 144.075952,8.21457548 C143.234524,9.12731065 142.756771,10.3252576 142.64268,11.8084522 C142.585634,12.7782334 142.557111,13.9761803 142.557111,15.402329 C142.557111,16.7714318 142.585634,17.9693787 142.64268,18.9962058 C142.756771,20.4794004 143.234524,21.6773474 144.075952,22.5900826 Z M195.609577,15.060055 L195.609577,29.2216409 C195.609577,29.5353936 195.495487,29.8063578 195.267303,30.0345416 C195.039119,30.2627254 194.768155,30.3768156 194.454403,30.3768156 L188.849666,30.3768156 C188.535913,30.3768156 188.264949,30.2627254 188.036765,30.0345416 C187.808582,29.8063578 187.694492,29.5353936 187.694492,29.2216409 L187.694492,1.58301715 C187.694492,1.26926443 187.808582,0.998300244 188.036765,0.770116451 C188.264949,0.541932658 188.535913,0.427842473 188.849666,0.427842473 L193.812639,0.427842473 C194.611282,0.427842473 195.224517,0.812896848 195.652362,1.58301715 L202.58341,13.4342536 L209.514458,1.58301715 C209.942302,0.812896848 210.555537,0.427842473 211.35418,0.427842473 L216.317153,0.427842473 C216.630906,0.427842473 216.90187,0.541932658 217.130054,0.770116451 C217.358237,0.998300244 217.472328,1.26926443 217.472328,1.58301715 L217.472328,29.2216409 C217.472328,29.5353936 217.358237,29.8063578 217.130054,30.0345416 C216.90187,30.2627254 216.630906,30.3768156 216.317153,30.3768156 L210.712417,30.3768156 C210.398664,30.3768156 210.1277,30.2627254 209.899516,30.0345416 C209.671332,29.8063578 209.557242,29.5353936 209.557242,29.2216409 L209.557242,15.060055 L205.535523,22.1194558 C205.335862,22.4332086 205.114812,22.6899115 204.872367,22.8895723 C204.629922,23.0892331 204.323304,23.189062 203.952505,23.189062 L201.214314,23.189062 C200.843515,23.189062 200.536898,23.0892331 200.294452,22.8895723 C200.052007,22.6899115 199.830957,22.4332086 199.631297,22.1194558 L195.609577,15.060055 Z M237.794845,18.7395003 L250.03114,18.7395003 C250.344892,18.7395003 250.615856,18.6254101 250.84404,18.3972263 C251.072224,18.1690425 251.186314,17.8980783 251.186314,17.5843256 L251.186314,13.0491954 C251.186314,12.7354427 251.072224,12.4644785 250.84404,12.2362947 C250.615856,12.0081109 250.344892,11.8940207 250.03114,11.8940207 L237.794845,11.8940207 L237.794845,7.27332204 L250.972393,7.27332204 C251.286146,7.27332204 251.55711,7.15923185 251.785294,6.93104806 C252.013478,6.70286427 252.127568,6.43190008 252.127568,6.11814736 L252.127568,1.58301715 C252.127568,1.26926443 252.013478,0.998300244 251.785294,0.770116451 C251.55711,0.541932658 251.286146,0.427842473 250.972393,0.427842473 L231.034934,0.427842473 C230.721181,0.427842473 230.450217,0.541932658 230.222033,0.770116451 C229.993849,0.998300244 229.879759,1.26926443 229.879759,1.58301715 L229.879759,29.2216409 C229.879759,29.5353936 229.993849,29.8063578 230.222033,30.0345416 C230.450217,30.2627254 230.721181,30.3768156 231.034934,30.3768156 L251.314667,30.3768156 C251.62842,30.3768156 251.899384,30.2627254 252.127568,30.0345416 C252.355751,29.8063578 252.469842,29.5353936 252.469842,29.2216409 L252.469842,24.6865107 C252.469842,24.372758 252.355751,24.1017938 252.127568,23.87361 C251.899384,23.6454262 251.62842,23.531336 251.314667,23.531336 L237.794845,23.531336 L237.794845,18.7395003 Z M282.162109,30.0559337 C281.848356,29.8420114 281.634437,29.6209617 281.520345,29.3927779 L271.722753,14.7605653 L271.722753,29.2216409 C271.722753,29.5353936 271.608663,29.8063578 271.380479,30.0345416 C271.152295,30.2627254 270.881331,30.3768156 270.567578,30.3768156 L264.962842,30.3768156 C264.649089,30.3768156 264.378125,30.2627254 264.149941,30.0345416 C263.921757,29.8063578 263.807667,29.5353936 263.807667,29.2216409 L263.807667,1.58301715 C263.807667,1.26926443 263.921757,0.998300244 264.149941,0.770116451 C264.378125,0.541932658 264.649089,0.427842473 264.962842,0.427842473 L269.412403,0.427842473 C269.840248,0.427842473 270.211041,0.534802021 270.524794,0.748724327 C270.838547,0.962646633 271.052466,1.18369637 271.166558,1.41188016 L280.96415,16.0440927 L280.96415,1.58301715 C280.96415,1.26926443 281.07824,0.998300244 281.306424,0.770116451 C281.534608,0.541932658 281.805572,0.427842473 282.119325,0.427842473 L287.724061,0.427842473 C288.037814,0.427842473 288.308778,0.541932658 288.536962,0.770116451 C288.765146,0.998300244 288.879236,1.26926443 288.879236,1.58301715 L288.879236,29.2216409 C288.879236,29.5353936 288.765146,29.8063578 288.536962,30.0345416 C288.308778,30.2627254 288.037814,30.3768156 287.724061,30.3768156 L283.274499,30.3768156 C282.846655,30.3768156 282.475862,30.269856 282.162109,30.0559337 Z M326.657726,0.770116451 C326.88591,0.998300244 327,1.26926443 327,1.58301715 L327,18.6539318 C327,21.2209995 326.458072,23.4172355 325.374199,25.2427059 C324.290326,27.0681762 322.7715,28.4515197 320.817676,29.3927779 C318.863853,30.334036 316.589179,30.804658 313.993589,30.804658 C311.369475,30.804658 309.080541,30.334036 307.126717,29.3927779 C305.172893,28.4515197 303.661198,27.0681762 302.591587,25.2427059 C301.521975,23.4172355 300.987178,21.2209995 300.987178,18.6539318 L300.987178,1.58301715 C300.987178,1.26926443 301.101268,0.998300244 301.329452,0.770116451 C301.557635,0.541932658 301.8286,0.427842473 302.142352,0.427842473 L307.747089,0.427842473 C308.060841,0.427842473 308.331806,0.541932658 308.559989,0.770116451 C308.788173,0.998300244 308.902263,1.26926443 308.902263,1.58301715 L308.902263,18.4827948 C308.902263,20.2226962 309.337232,21.5703866 310.207183,22.5259062 C311.077134,23.4814258 312.339256,23.9591785 313.993589,23.9591785 C315.647921,23.9591785 316.910044,23.4814258 317.779995,22.5259062 C318.649945,21.5703866 319.084914,20.2226962 319.084914,18.4827948 L319.084914,1.58301715 C319.084914,1.26926443 319.199004,0.998300244 319.427188,0.770116451 C319.655372,0.541932658 319.926336,0.427842473 320.240089,0.427842473 L325.844825,0.427842473 C326.158578,0.427842473 326.429542,0.541932658 326.657726,0.770116451 Z" id="magicMenus-Copy" fill="#28353D"></path>
    </g>
</svg>