<?xml version="1.0" encoding="UTF-8"?>
<svg width="559px" height="52px" viewBox="0 0 559 52" version="1.1" xmlns="http://www.w3.org/2000/svg" xmlns:xlink="http://www.w3.org/1999/xlink">
    <!-- Generator: Sketch 47.1 (45422) - http://www.bohemiancoding.com/sketch -->
    <title>magicMenus</title>
    <desc>Created with Sketch.</desc>
    <defs></defs>
    <g id="Page-1" stroke="none" stroke-width="1" fill="none" fill-rule="evenodd">
        <path d="M13.5306817,25.4222222 L13.5306817,49.3277778 C13.5306817,49.8574101 13.3356468,50.3148129 12.9455712,50.7 C12.5554955,51.0851871 12.0922876,51.2777778 11.5559336,51.2777778 L1.97474815,51.2777778 C1.43839412,51.2777778 0.975186221,51.0851871 0.585110562,50.7 C0.195034904,50.3148129 0,49.8574101 0,49.3277778 L0,2.67222222 C0,2.14258994 0.195034904,1.68518711 0.585110562,1.3 C0.975186221,0.914812889 1.43839412,0.722222222 1.97474815,0.722222222 L10.4588513,0.722222222 C11.8241161,0.722222222 12.8724287,1.37221572 13.6038206,2.67222222 L25.4523095,22.6777778 L37.3007983,2.67222222 C38.0321902,1.37221572 39.0805028,0.722222222 40.4457676,0.722222222 L48.9298708,0.722222222 C49.4662248,0.722222222 49.9294327,0.914812889 50.3195083,1.3 C50.709584,1.68518711 50.9046189,2.14258994 50.9046189,2.67222222 L50.9046189,49.3277778 C50.9046189,49.8574101 50.709584,50.3148129 50.3195083,50.7 C49.9294327,51.0851871 49.4662248,51.2777778 48.9298708,51.2777778 L39.3486853,51.2777778 C38.8123313,51.2777778 38.3491234,51.0851871 37.9590477,50.7 C37.5689721,50.3148129 37.3739372,49.8574101 37.3739372,49.3277778 L37.3739372,25.4222222 L30.4988881,37.3388889 C30.1575719,37.8685212 29.7796917,38.3018502 29.3652363,38.6388889 C28.950781,38.9759276 28.4266246,39.1444444 27.7927517,39.1444444 L23.1118672,39.1444444 C22.4779943,39.1444444 21.953838,38.9759276 21.5393826,38.6388889 C21.1249272,38.3018502 20.7470471,37.8685212 20.4057309,37.3388889 L13.5306817,25.4222222 Z M118.41175,48.6055556 C118.606787,49.0870394 118.704305,49.4481469 118.704305,49.6888889 C118.704305,50.1222244 118.545839,50.4953688 118.228903,50.8083333 C117.911966,51.1212979 117.534086,51.2777778 117.095251,51.2777778 L107.87976,51.2777778 C107.050849,51.2777778 106.404796,51.097224 105.941581,50.7361111 C105.478366,50.3749982 105.173624,49.9537061 105.027346,49.4722222 L102.979459,43.4777778 L83.5245324,43.4777778 L81.4766454,49.4722222 C81.330367,49.9537061 81.025625,50.3749982 80.5624102,50.7361111 C80.0991953,51.097224 79.4531422,51.2777778 78.6242314,51.2777778 L69.4087401,51.2777778 C68.969905,51.2777778 68.5920248,51.1212979 68.2750884,50.8083333 C67.9581519,50.4953688 67.799686,50.1222244 67.799686,49.6888889 C67.799686,49.4481469 67.8972035,49.0870394 68.0922413,48.6055556 L84.0365041,3.10555556 C84.2803014,2.43147811 84.6703712,1.86574303 85.2067252,1.40833333 C85.7430793,0.950923639 86.4500808,0.722222222 87.327751,0.722222222 L99.1762399,0.722222222 C100.05391,0.722222222 100.760912,0.950923639 101.297266,1.40833333 C101.83362,1.86574303 102.22369,2.43147811 102.467487,3.10555556 L118.41175,48.6055556 Z M99.1762399,32.2833333 L93.2519955,14.95 L87.327751,32.2833333 L99.1762399,32.2833333 Z M145.911946,25.4944444 C145.911946,28.4796446 145.985084,30.6703634 146.131362,32.0666667 C146.3264,34.5222345 147.155298,36.5323996 148.618082,38.0972222 C150.080866,39.6620449 152.323767,40.4444444 155.346854,40.4444444 C158.126143,40.4444444 160.356854,39.8064879 162.039056,38.5305556 C163.721257,37.2546233 164.562345,35.2444582 164.562345,32.5 L158.418684,32.5 C157.88233,32.5 157.419122,32.3074093 157.029046,31.9222222 C156.638971,31.5370351 156.443936,31.0796323 156.443936,30.55 L156.443936,22.8944444 C156.443936,22.3648122 156.638971,21.9074093 157.029046,21.5222222 C157.419122,21.1370351 157.88233,20.9444444 158.418684,20.9444444 L176.118278,20.9444444 C176.654633,20.9444444 177.11784,21.1370351 177.507916,21.5222222 C177.897992,21.9074093 178.093027,22.3648122 178.093027,22.8944444 L178.093027,32.1388889 C178.093027,36.1352052 177.093473,39.6379479 175.094335,42.6472222 C173.095197,45.6564965 170.376898,47.9675845 166.939357,49.5805556 C163.501815,51.1935266 159.637686,52 155.346854,52 C150.812224,52 146.862767,51.1213051 143.498365,49.3638889 C140.133962,47.6064727 137.52537,45.247237 135.672511,42.2861111 C133.819651,39.3249852 132.795718,36.0389069 132.60068,32.4277778 C132.503161,30.1166551 132.454403,28.2148223 132.454403,26.7222222 C132.454403,24.9407318 132.503161,22.5574223 132.60068,19.5722222 C132.746959,15.9610931 133.746513,12.6750148 135.599372,9.71388889 C137.452231,6.75276297 140.073013,4.39352731 143.461795,2.63611111 C146.850578,0.878694917 150.812224,0 155.346854,0 C159.686445,0 163.526195,0.7944365 166.866218,2.38333333 C170.206241,3.97223017 172.814832,5.97035833 174.692071,8.37777778 C176.569311,10.7851972 177.581054,13.1203591 177.727333,15.3833333 C177.776092,15.8166688 177.629816,16.1898132 177.2885,16.5027778 C176.947183,16.8157423 176.557114,16.9722222 176.118278,16.9722222 L166.390815,16.9722222 C165.756942,16.9722222 165.257165,16.8157423 164.89147,16.5027778 C164.525774,16.1898132 164.050376,15.6962997 163.465263,15.0222222 C162.587592,13.9629577 161.551469,13.1203735 160.356863,12.4944444 C159.162256,11.8685154 157.49227,11.5555556 155.346854,11.5555556 C149.837035,11.5555556 146.765235,14.3481202 146.131362,19.9333333 C145.985084,21.0888947 145.911946,22.9425798 145.911946,25.4944444 Z M197.913647,50.7 C197.523571,50.3148129 197.328536,49.8574101 197.328536,49.3277778 L197.328536,2.67222222 C197.328536,2.14258994 197.523571,1.68518711 197.913647,1.3 C198.303722,0.914812889 198.76693,0.722222222 199.303284,0.722222222 L208.88447,0.722222222 C209.420824,0.722222222 209.884032,0.914812889 210.274107,1.3 C210.664183,1.68518711 210.859218,2.14258994 210.859218,2.67222222 L210.859218,49.3277778 C210.859218,49.8574101 210.664183,50.3148129 210.274107,50.7 C209.884032,51.0851871 209.420824,51.2777778 208.88447,51.2777778 L199.303284,51.2777778 C198.76693,51.2777778 198.303722,51.0851871 197.913647,50.7 Z M246.294976,38.1333333 C247.73338,39.6740818 249.988471,40.4444444 253.060317,40.4444444 C255.985884,40.4444444 258.106889,39.8907463 259.423394,38.7833333 C260.739899,37.6759204 261.666315,36.3277857 262.202669,34.7388889 C262.495226,33.9203663 262.787778,33.3666681 263.080335,33.0777778 C263.372892,32.7888874 263.909238,32.6444444 264.689389,32.6444444 L274.270575,32.6444444 C274.70941,32.6444444 275.08729,32.8009244 275.404226,33.1138889 C275.721163,33.4268534 275.879629,33.7999978 275.879629,34.2333333 C275.830869,37.4592754 274.794746,40.4323938 272.771229,43.1527778 C270.747711,45.8731618 268.005033,48.0277698 264.543111,49.6166667 C261.08119,51.2055635 257.25363,52 253.060317,52 C248.525687,52 244.57623,51.1213051 241.211828,49.3638889 C237.847425,47.6064727 235.238833,45.247237 233.385974,42.2861111 C231.533115,39.3249852 230.509181,36.0389069 230.314144,32.4277778 C230.216625,30.1166551 230.167866,28.2148223 230.167866,26.7222222 C230.167866,24.9407318 230.216625,22.5574223 230.314144,19.5722222 C230.460422,15.9610931 231.459976,12.6750148 233.312835,9.71388889 C235.165695,6.75276297 237.786476,4.39352731 241.175258,2.63611111 C244.564041,0.878694917 248.525687,0 253.060317,0 C257.25363,0 261.08119,0.7944365 264.543111,2.38333333 C268.005033,3.97223017 270.747711,6.12683825 272.771229,8.84722222 C274.794746,11.5676062 275.830869,14.5407246 275.879629,17.7666667 C275.879629,18.2000022 275.721163,18.5731466 275.404226,18.8861111 C275.08729,19.1990756 274.70941,19.3555556 274.270575,19.3555556 L264.689389,19.3555556 C263.909238,19.3555556 263.372892,19.2111126 263.080335,18.9222222 C262.787778,18.6333319 262.495226,18.0796337 262.202669,17.2611111 C261.666315,15.6722143 260.739899,14.3240796 259.423394,13.2166667 C258.106889,12.1092537 255.985884,11.5555556 253.060317,11.5555556 C249.988471,11.5555556 247.73338,12.3259182 246.294976,13.8666667 C244.856572,15.4074151 244.039863,17.4296171 243.844825,19.9333333 C243.747306,21.5703786 243.698548,23.5925806 243.698548,26 C243.698548,28.3111227 243.747306,30.3333247 243.844825,32.0666667 C244.039863,34.5703829 244.856572,36.5925849 246.294976,38.1333333 Z M334.390684,25.4222222 L334.390684,49.3277778 C334.390684,49.8574101 334.195649,50.3148129 333.805573,50.7 C333.415498,51.0851871 332.95229,51.2777778 332.415936,51.2777778 L322.83475,51.2777778 C322.298396,51.2777778 321.835189,51.0851871 321.445113,50.7 C321.055037,50.3148129 320.860002,49.8574101 320.860002,49.3277778 L320.860002,2.67222222 C320.860002,2.14258994 321.055037,1.68518711 321.445113,1.3 C321.835189,0.914812889 322.298396,0.722222222 322.83475,0.722222222 L331.318854,0.722222222 C332.684118,0.722222222 333.732431,1.37221572 334.463823,2.67222222 L346.312312,22.6777778 L358.160801,2.67222222 C358.892193,1.37221572 359.940505,0.722222222 361.30577,0.722222222 L369.789873,0.722222222 C370.326227,0.722222222 370.789435,0.914812889 371.179511,1.3 C371.569586,1.68518711 371.764621,2.14258994 371.764621,2.67222222 L371.764621,49.3277778 C371.764621,49.8574101 371.569586,50.3148129 371.179511,50.7 C370.789435,51.0851871 370.326227,51.2777778 369.789873,51.2777778 L360.208688,51.2777778 C359.672334,51.2777778 359.209126,51.0851871 358.81905,50.7 C358.428974,50.3148129 358.233939,49.8574101 358.233939,49.3277778 L358.233939,25.4222222 L351.35889,37.3388889 C351.017574,37.8685212 350.639694,38.3018502 350.225239,38.6388889 C349.810783,38.9759276 349.286627,39.1444444 348.652754,39.1444444 L343.97187,39.1444444 C343.337997,39.1444444 342.81384,38.9759276 342.399385,38.6388889 C341.984929,38.3018502 341.607049,37.8685212 341.265733,37.3388889 L334.390684,25.4222222 Z M406.50556,31.6333333 L427.423263,31.6333333 C427.959617,31.6333333 428.422825,31.4407427 428.812901,31.0555556 C429.202976,30.6703684 429.398011,30.2129656 429.398011,29.6833333 L429.398011,22.0277778 C429.398011,21.4981455 429.202976,21.0407427 428.812901,20.6555556 C428.422825,20.2703684 427.959617,20.0777778 427.423263,20.0777778 L406.50556,20.0777778 L406.50556,12.2777778 L429.032317,12.2777778 C429.568671,12.2777778 430.031879,12.0851871 430.421955,11.7 C430.81203,11.3148129 431.007065,10.8574101 431.007065,10.3277778 L431.007065,2.67222222 C431.007065,2.14258994 430.81203,1.68518711 430.421955,1.3 C430.031879,0.914812889 429.568671,0.722222222 429.032317,0.722222222 L394.949627,0.722222222 C394.413273,0.722222222 393.950065,0.914812889 393.559989,1.3 C393.169914,1.68518711 392.974879,2.14258994 392.974879,2.67222222 L392.974879,49.3277778 C392.974879,49.8574101 393.169914,50.3148129 393.559989,50.7 C393.950065,51.0851871 394.413273,51.2777778 394.949627,51.2777778 L429.617428,51.2777778 C430.153782,51.2777778 430.61699,51.0851871 431.007065,50.7 C431.397141,50.3148129 431.592176,49.8574101 431.592176,49.3277778 L431.592176,41.6722222 C431.592176,41.1425899 431.397141,40.6851871 431.007065,40.3 C430.61699,39.9148129 430.153782,39.7222222 429.617428,39.7222222 L406.50556,39.7222222 L406.50556,31.6333333 Z M482.350517,50.7361111 C481.814163,50.3749982 481.448472,50.0018538 481.253434,49.6166667 L464.504645,24.9166667 L464.504645,49.3277778 C464.504645,49.8574101 464.30961,50.3148129 463.919534,50.7 C463.529458,51.0851871 463.06625,51.2777778 462.529896,51.2777778 L452.948711,51.2777778 C452.412357,51.2777778 451.949149,51.0851871 451.559073,50.7 C451.168998,50.3148129 450.973963,49.8574101 450.973963,49.3277778 L450.973963,2.67222222 C450.973963,2.14258994 451.168998,1.68518711 451.559073,1.3 C451.949149,0.914812889 452.412357,0.722222222 452.948711,0.722222222 L460.555148,0.722222222 C461.28654,0.722222222 461.920404,0.902775972 462.456758,1.26388889 C462.993112,1.62500181 463.358802,1.99814622 463.55384,2.38333333 L480.30263,27.0833333 L480.30263,2.67222222 C480.30263,2.14258994 480.497665,1.68518711 480.88774,1.3 C481.277816,0.914812889 481.741024,0.722222222 482.277378,0.722222222 L491.858563,0.722222222 C492.394917,0.722222222 492.858125,0.914812889 493.248201,1.3 C493.638277,1.68518711 493.833312,2.14258994 493.833312,2.67222222 L493.833312,49.3277778 C493.833312,49.8574101 493.638277,50.3148129 493.248201,50.7 C492.858125,51.0851871 492.394917,51.2777778 491.858563,51.2777778 L484.252126,51.2777778 C483.520734,51.2777778 482.886871,51.097224 482.350517,50.7361111 Z M558.414889,1.3 C558.804965,1.68518711 559,2.14258994 559,2.67222222 L559,31.4888889 C559,35.8222439 558.073584,39.5296142 556.220725,42.6111111 C554.367865,45.692608 551.771463,48.0277698 548.43144,49.6166667 C545.091418,51.2055635 541.202909,52 536.765799,52 C532.279929,52 528.367041,51.2055635 525.027018,49.6166667 C521.686995,48.0277698 519.102783,45.692608 517.274303,42.6111111 C515.445823,39.5296142 514.531597,35.8222439 514.531597,31.4888889 L514.531597,2.67222222 C514.531597,2.14258994 514.726632,1.68518711 515.116708,1.3 C515.506783,0.914812889 515.969991,0.722222222 516.506345,0.722222222 L526.087531,0.722222222 C526.623885,0.722222222 527.087093,0.914812889 527.477168,1.3 C527.867244,1.68518711 528.062279,2.14258994 528.062279,2.67222222 L528.062279,31.2 C528.062279,34.1370517 528.80585,36.412029 530.293013,38.025 C531.780176,39.637971 533.93775,40.4444444 536.765799,40.4444444 C539.593847,40.4444444 541.751421,39.637971 543.238584,38.025 C544.725748,36.412029 545.469318,34.1370517 545.469318,31.2 L545.469318,2.67222222 C545.469318,2.14258994 545.664353,1.68518711 546.054429,1.3 C546.444504,0.914812889 546.907712,0.722222222 547.444066,0.722222222 L557.025252,0.722222222 C557.561606,0.722222222 558.024814,0.914812889 558.414889,1.3 Z" id="magicMenus" fill="#FFFFFF"></path>
    </g>
</svg>