<?xml version="1.0" encoding="UTF-8"?>
<svg width="57px" height="57px" viewBox="0 0 57 57" version="1.1" xmlns="http://www.w3.org/2000/svg" xmlns:xlink="http://www.w3.org/1999/xlink">
    <!-- Generator: Sketch 47.1 (45422) - http://www.bohemiancoding.com/sketch -->
    <title>owl</title>
    <desc>Created with Sketch.</desc>
    <defs></defs>
    <g id="Page-1" stroke="none" stroke-width="1" fill="none" fill-rule="evenodd">
        <path d="M40.5898178,25 C40.5705932,27.44001 40.5718258,30.4402799 40.5935452,34 C42.6595106,33.8384761 44.5645628,33.2268158 46.3132674,32.1576795 C46.1792554,29.5 46.4980283,26.8101803 46.3140916,25 C45.0420307,25 43.1339395,25 40.5898178,25 Z M51.0915594,32.5984002 L51.2673479,38.7687333 C51.2673479,39.7187333 50.9721502,40.6043867 50.4417389,41.1759067 C50.0289225,41.7473887 49.3785547,41.9997467 48.7881592,41.9997467 C48.1977165,42 47.5473368,41.7476547 47.1345323,41.2405067 C46.6040974,40.6071733 46.2489391,39.72152 46.3089233,38.8333333 L46.3964737,35.7602365 C44.5486793,36.5166708 42.5671035,36.9284397 40.45448,36.9914615 C39.6734884,44.656772 35.2024618,51.1722231 28.9563831,54.5385267 L39.4076026,54.5410004 C40.0540472,54.5410004 40.5759101,55.092673 40.5759101,55.7705002 C40.5759101,56.4508036 40.0516942,57 39.4076026,57 L1.16830756,57 C0.5218629,57 0,56.4483273 0,55.7705002 L0,55.2584098 L0,22.6924221 L0,20.2556515 C0,16.646442 0.815660898,13.4131627 2.50114344,10.2886854 C5.81096707,4.15112929 12.0755605,0 19.2452403,0 L21.3327159,0 C28.495776,0 34.7508011,4.14124972 38.0629717,10.2665197 C40.0658001,13.0847304 40.5759101,16.8101515 40.5759101,20.2537516 L40.5759793,23 C45.0688633,23 47.0008887,23 47.0008887,23 C47.3389831,24.2555084 47.1438975,32.4660237 47.3389831,35.3388936 C47.0287883,35.4895444 46.7146139,35.629999 46.3964737,35.7602365 L46.8393582,20.2146 C44.8329582,18.9479333 43.4745763,15.9074267 43.4745763,12.4239667 C43.4745763,7.73584333 45.8361582,4 48.7881356,4 C51.740113,4 54.1016949,7.73565333 54.1016949,12.3593667 C54.1016949,15.8427 52.743313,18.8833333 50.736913,20.15 L50.8181075,23 C51.8757197,23 53.606744,23 55.8376532,23 C56.7180006,23 57.2778948,24.0080659 56.8573981,24.8360074 C55.2053974,28.0887316 53.2809326,30.680014 51.0915594,32.5984002 Z M21.3223652,2 L19.2610347,2 C15.6895429,2 12.3806853,3.27608942 9.66101695,5.44053779 C10.2898894,5.31476017 10.9326629,5.23614748 11.5940304,5.23614748 C15.1028488,5.23614748 18.2564784,7.08350208 20.289294,10 C22.3221691,7.08088591 25.4759175,5.23614748 28.9845576,5.23614748 C29.6436083,5.23614748 30.2863818,5.31476017 30.9152542,5.44053779 C28.2003977,3.27608942 24.8913619,2 21.3223652,2 Z M3.61515859,14.2922021 C3.42219077,14.8564323 3.25304508,15.4332626 3.11033793,16.0201838 C3.04125009,16.8161675 2.96977759,17.5995125 2.89830508,18.398011 C3.07462303,20.3551482 3.81313358,22.1335372 4.94001931,23.5617167 C6.25273721,24.9823516 6.25273721,24.9823516 7.74646917,25.9395439 C8.63513357,26.4206549 9.60472979,26.7581871 10.6339118,26.9042808 L11.3915118,27 L30.197946,26.9722921 C34.4073159,26.7253205 37.8474979,23.4231231 38.5478906,19.1233666 C38.7289535,18.0226342 38.6455699,16.8866292 38.3715971,15.8085304 C38.2405692,15.292147 38.0880978,14.7833274 37.9165675,14.2871079 C36.7205817,10.8312464 33.7805059,8.2720402 30.3070241,8.0226698 C30.1045299,8.00755617 29.8996449,8 29.6947599,8 C25.549428,8 22.0639925,10.9670125 21.0276748,15.0022578 C20.9562023,15.2843729 20.5821716,15.2843729 20.5106991,15.0022578 C19.4745033,10.9672704 15.9889458,8 11.843614,8 C11.6363565,8 11.4314715,8.00755617 11.2289712,8.0226698 C7.75335478,8.27209178 4.81346194,10.8337613 3.61515859,14.2922021 Z M1.93220339,25 L1.93461627,54 C6.67409581,51.122076 9.66101695,45.621183 9.66101695,39.4951608 C9.66101695,35.0592148 8.09235481,30.9585572 5.43530945,27.9380173 C4.43666254,26.7302622 3.85768517,26.532789 2.72437633,25.5125854 C2.46630685,25.3325551 2.20149853,25.1625297 1.93220339,25 Z M4.83050847,54 L19.3825902,53.999821 C30.0031821,53.999821 38.6440678,45.1832797 38.6440678,34.3492832 L38.6440678,24 C36.7738018,26.695118 33.8100508,28.5568599 30.3828602,28.8712124 C30.213289,28.9102015 30.0389489,28.9296961 29.8598277,28.9296961 L10.2449622,28.9296961 C10.1709219,28.9296961 10.1040533,28.9126382 10.0324036,28.9053276 C11.778189,31.7736822 12.7621727,35.1315537 12.7621727,38.6844333 C12.7621727,44.9276898 9.74076681,50.5982112 4.83050847,54 Z M31.4968964,17.4288744 C31.4968964,16.6708214 30.8008555,16.0532839 29.9466439,16.0532839 C29.0923681,16.0532839 28.3988962,16.6708785 28.4014087,17.4288744 C28.2332992,17.8145622 27.8309725,18.0048079 27.1944286,17.9996116 C26.5578846,17.9944152 26.1879904,17.8041695 26.0847458,17.4288744 C26.0847458,15.5383078 27.8184479,14 29.9491525,14 C32.0798572,14 33.8135593,15.5383078 33.8135593,17.4288744 C33.7087935,17.8195545 33.3297311,18.0098002 32.6763721,17.9996116 C32.0230131,17.989423 31.6298546,17.7991773 31.4968964,17.4288744 Z M13.1409642,17.4292073 C13.1409642,16.6710807 12.4449233,16.0534832 11.5907117,16.0534832 C10.7364359,16.0534832 10.0404509,16.6711378 10.0454765,17.4292073 C9.89258375,17.8097357 9.50895828,17.9999999 8.89460006,17.9999999 C8.28024183,17.9999999 7.89164633,17.8097357 7.72881356,17.4292073 C7.72881356,15.5384571 9.46251568,14 11.5932203,14 C13.723925,14 15.4576271,15.5384571 15.4576271,17.4292073 C15.3884097,17.8095427 14.9977749,17.9998068 14.285723,17.9999999 C13.573671,18.0001929 13.1920847,17.8099287 13.1409642,17.4292073 Z M23.1864407,22.1326 L20.7711864,26 L18.3559322,22.1326 L20.7711864,20 L23.1864407,22.1326 Z M44.9000244,12.4251119 C44.9000244,15.5749853 46.2418053,18.345866 48.1571758,19.2294685 C48.4115625,19.3549721 48.5412458,19.5444558 48.5412458,19.795463 L47.9676307,38.6947037 C47.9676307,39.2606981 47.9287212,39.9860677 48.7307398,39.9998144 C49.5327585,40.0135611 49.6235834,39.2606729 49.5612317,38.6947037 L48.9876165,19.795463 C48.9876165,19.5444558 49.1148099,19.2909918 49.3716866,19.2294685 C51.2870571,18.3485119 52.628838,15.5751113 52.628838,12.4251119 C52.5614999,8.51977277 51.2197638,6 48.7307398,6 C46.2418053,6 44.9000244,8.51989876 44.9000244,12.4251119 Z M50.3625715,29 C51.7959032,27.8421583 52.8833938,26.6611687 54.1016949,25 C52.4401499,25 51.1520143,25 50.2372881,25 C50.3086139,27.2045907 50.3224122,27.322709 50.3625715,29 Z" id="owl" fill="#FFFFFF" fill-rule="nonzero"></path>
    </g>
</svg>