<?xml version="1.0" encoding="UTF-8"?>
<svg width="50px" height="49px" viewBox="0 0 50 49" version="1.1" xmlns="http://www.w3.org/2000/svg" xmlns:xlink="http://www.w3.org/1999/xlink">
    <!-- Generator: Sketch 47.1 (45422) - http://www.bohemiancoding.com/sketch -->
    <title>twitter</title>
    <desc>Created with Sketch.</desc>
    <defs></defs>
    <g id="Page-1" stroke="none" stroke-width="1" fill="none" fill-rule="evenodd">
        <g id="Desktop-HD" transform="translate(-742.000000, -4117.000000)" fill="#000000">
            <path d="M767.272223,4165.89739 C753.76961,4165.89739 742.823529,4154.95131 742.823529,4141.44869 C742.823529,4127.94608 753.76961,4117 767.272223,4117 C780.774836,4117 791.720916,4127.94608 791.720916,4141.44869 C791.720916,4154.95131 780.774836,4165.89739 767.272223,4165.89739 Z M778.51195,4131.53875 C777.555022,4132.1196 776.497635,4132.54204 775.36748,4132.76807 C774.46722,4131.78281 773.180582,4131.16718 771.756136,4131.16718 C769.025734,4131.16718 766.809858,4133.43908 766.809858,4136.24097 C766.809858,4136.63829 766.852359,4137.02467 766.937362,4137.39624 C762.825015,4137.18437 759.179542,4135.16684 756.737635,4132.0932 C756.311331,4132.84535 756.067913,4133.71792 756.067913,4134.64651 C756.067913,4136.40646 756.941127,4137.9597 758.269622,4138.86962 C757.459517,4138.84515 756.695133,4138.61461 756.0267,4138.23661 L756.0267,4138.29907 C756.0267,4140.75837 757.732557,4142.81003 759.998019,4143.27433 C759.583307,4143.39346 759.145412,4143.45271 758.693994,4143.45271 C758.375232,4143.45271 758.064198,4143.42244 757.762824,4143.3632 C758.392619,4145.37815 760.218898,4146.84575 762.384545,4146.88438 C760.691567,4148.24637 758.55683,4149.05776 756.239207,4149.05776 C755.83995,4149.05776 755.445201,4149.03458 755.058824,4148.98821 C757.248297,4150.42554 759.850551,4151.26591 762.644062,4151.26591 C771.746477,4151.26591 776.722378,4143.53578 776.722378,4136.83019 C776.722378,4136.60931 776.718514,4136.38908 776.710142,4136.17271 C777.676731,4135.45662 778.516458,4134.56409 779.177164,4133.54663 C778.291071,4133.94975 777.336718,4134.22279 776.336,4134.34514 C777.357969,4133.71792 778.142316,4132.723 778.51195,4131.53875 Z" id="twitter"></path>
        </g>
    </g>
</svg>